<svg width="64" height="16" viewBox="0 0 64 16" fill="none" xmlns="http://www.w3.org/2000/svg">
<path d="M3.5096 13.1369L2.88479 6.03143H2.08272L1.87445 4.99345L1.53324 3.22528L1.32496 2.01703L2.91138 1.84348L12.997 0.690896L14.8139 0.481334L13.4889 0L11.6721 0.193186L1.58641 1.34578L0 1.53569L0.234862 2.72757L0.545054 4.49247L0.935012 6.50949L1.66618 6.48985L2.18464 12.6555L2.36632 15L4.41802 14.499L3.63811 14.6922L3.5096 13.1369Z" fill="#002370"/>
<path d="M15 4.70529L14.8981 1.84347L14.8449 0.481323L13.0236 0.694159L2.93795 1.84674L1.32495 2.03993L1.55981 3.23181L1.89659 4.99999L2.07827 6.03797H2.91136L3.50959 13.1434L3.6381 14.6987L4.41801 14.5056L5.61447 14.2174L8.18906 13.6018L9.33234 13.3333V12.4492V10.0098L11.7474 9.68237L12.9704 9.50883L13.0724 8.56908L13.2541 6.9548L13.356 5.95611L14.9911 5.93646V4.70529H15ZM7.6706 4.83954L7.82569 6.68303L11.6721 6.87622L11.4904 8.49049L7.72377 9.00785V12.4656L5.14918 13.0812L4.44903 4.84281H3.51402L3.17724 3.07464L13.2629 1.92206L13.3648 4.78388L7.6706 4.83954Z" fill="white"/>
<path d="M3.17285 3.05502L3.48304 4.81992H4.41805L5.12263 13.0583L7.71938 12.446V8.98822L11.4638 8.48724L11.6455 6.87624L7.79914 6.68305L7.67064 4.83957L13.3604 4.74461L13.2585 1.90244L3.17285 3.05502Z" fill="#E76F51"/>
<path d="M19.3584 5.62506L18.4139 16L16 15.001L16.9446 4.97385H16.993C16.4682 4.58165 16.2341 4.14874 16.2341 3.67143C16.2341 2.91292 16.8961 2.23952 18.2201 1.71781C19.4069 1.2405 20.8762 1 22.4827 1C24.0893 1 25.5586 1.2368 26.7454 1.71781C26.8423 1.76221 26.9311 1.80291 27.0279 1.82511C26.3659 1.71781 25.6071 1.65121 24.8482 1.65121C23.2416 1.65121 21.7723 1.89171 20.634 2.36902C19.3584 2.89073 18.6884 3.54193 18.6884 4.30044C18.648 4.79995 18.8821 5.23656 19.3584 5.62506Z" fill="#002370"/>
<path d="M29.0624 2.41342C28.917 2.34682 28.7798 2.30612 28.586 2.23952L28.5376 2.21732C28.3923 2.17292 28.255 2.13222 28.1097 2.08782C27.7787 2.00272 27.3993 1.91392 27.0198 1.86952C26.3578 1.76222 25.599 1.69562 24.8401 1.69562C23.2335 1.69562 21.7642 1.93612 20.6259 2.41342C19.3503 2.93513 18.6803 3.58634 18.6803 4.34485C18.6803 4.79996 18.9144 5.23286 19.4391 5.62507H19.3907L18.4542 16H30.4348V5.47337C30.8142 5.12556 30.9999 4.73706 30.9999 4.34485C31.008 3.58634 30.3379 2.91293 29.0624 2.41342ZM27.4558 14.631H21.5382L22.2486 6.81648L27.4558 6.46868V14.631ZM27.0764 5.25506C26.4628 5.49557 25.7039 5.62507 24.7997 5.62507C23.9036 5.62507 23.1447 5.49557 22.5231 5.25506C21.9095 5.01826 21.5785 4.71116 21.5785 4.34485C21.5785 3.99705 21.9095 3.69364 22.5231 3.43464C23.1367 3.19414 23.8955 3.06464 24.7997 3.06464C25.6958 3.06464 26.4547 3.19414 27.0764 3.43464C27.6899 3.67514 28.0209 3.97855 28.0209 4.34485C28.0209 4.69266 27.6899 4.99606 27.0764 5.25506Z" fill="white"/>
<path d="M27.0764 3.43464C27.69 3.67514 28.021 3.97855 28.021 4.34485C28.021 4.69266 27.69 4.99606 27.0764 5.25506C26.4628 5.49557 25.704 5.62507 24.7998 5.62507C23.9036 5.62507 23.1448 5.49557 22.5231 5.25506C21.9096 5.01826 21.5786 4.71116 21.5786 4.34485C21.5786 3.99705 21.9096 3.69364 22.5231 3.43464C23.1367 3.19414 23.8956 3.06464 24.7998 3.06464C25.704 3.06464 26.4628 3.19414 27.0764 3.43464ZM21.5382 14.631H27.4558V6.47238L22.2486 6.82019L21.5382 14.631Z" fill="#E76F51"/>
<path d="M35.5219 13.5673L35.662 14.8036L34.7695 14.2691L34.6294 13.0328L33.901 6.61473L34.7215 6.53109L35.5219 13.5673ZM40.3565 14.6982L40.9448 14.9964L40.4045 13.6946L40.3565 14.6982ZM32.9845 2.30573L32.8925 1.04758L34.2772 0.87667C35.662 0.705765 36.8826 0.600313 37.9632 0.556677C40.1243 0.473043 41.6251 0.62213 42.6577 1.09121C42.4936 0.963941 42.3295 0.854853 42.1654 0.7494C41.1569 0.15305 39.536 -0.0833088 37.0707 0.0257798C36.0141 0.0694152 34.7695 0.174867 33.3847 0.345773L32 0.516678L32.0921 1.77483L32.3042 4.7384L32.3962 6.14565L33.2887 6.68018L33.1966 5.27294L32.9845 2.30573Z" fill="#001D63"/>
<path d="M41.389 5.50567C41.4131 6.21111 40.6126 6.76383 39.0198 7.18927L38.9037 4.67296C39.2559 4.62933 39.5841 4.58933 39.8442 4.58933C40.2885 4.56751 40.6206 4.61115 40.8288 4.69478C41.1529 4.82205 41.341 5.10205 41.389 5.50567ZM47 12.5855L45.2871 13.2691L42.3536 14.4437L40.9448 15L40.4045 13.6982L40.3805 14.7018L38.9718 14.7455L37.0467 14.7891L35.686 14.8327L35.5459 13.5964L34.7495 6.55656L33.3167 6.70565L33.2247 5.29841L33.0126 2.33483L32.9205 1.07668L34.3053 0.905773C35.69 0.734868 36.9107 0.629416 37.9912 0.58578C40.1524 0.502146 41.6532 0.651234 42.6857 1.12031C42.8258 1.18577 42.9659 1.24758 43.086 1.33486C44.1185 1.95302 45.3632 3.16754 45.4792 5.47295V5.51658V5.56022C45.4552 6.86201 44.963 8.01471 44.0465 8.93105L45.9475 11.2546L47 12.5855ZM44.6988 12.0328L41.9774 8.7056C43.246 7.91653 43.9024 6.8511 43.9264 5.50567C43.8544 4.09843 43.2941 3.073 42.2135 2.43301C41.4851 2.00757 40.0763 1.83666 37.9872 1.9203C36.9787 1.96393 35.7821 2.06938 34.4413 2.24029L34.6535 5.20386L36.0382 5.05477L36.9987 13.4582L38.9237 13.4146L39.0398 9.81103C39.44 9.7274 39.8162 9.61831 40.1684 9.51286L41.7412 13.2255L44.6988 12.0328Z" fill="white"/>
<path d="M43.9464 5.48386C43.8743 4.07661 43.314 3.05118 42.2334 2.41119C41.5051 1.98575 40.0963 1.81484 38.0072 1.89848C36.9987 1.94211 35.802 2.04757 34.4613 2.21847L34.6734 5.18204L36.0582 5.03296L37.0187 13.4364L38.9437 13.3928L39.0598 9.78922C39.46 9.70558 39.8362 9.59649 40.1884 9.49104L41.7612 13.2037L44.6948 12.0292L41.9733 8.70197C43.266 7.91653 43.8983 6.82928 43.9464 5.48386ZM39.0157 7.18927L38.8997 4.67296C39.2519 4.62933 39.58 4.58933 39.8402 4.58933C40.2844 4.56751 40.6166 4.61115 40.8247 4.69478C41.1289 4.82205 41.341 5.12023 41.389 5.52749C41.413 6.22929 40.6126 6.78564 39.0157 7.18927Z" fill="#E76F51"/>
<path d="M50.0834 8.10966C49.944 3.17625 52.0459 0.371858 55.9908 0.16164C56.4127 0.134804 56.8307 0.161638 57.2288 0.21531C56.5759 0.0587652 55.8753 -0.0217415 55.127 0.00509479C51.0188 0.242149 48.8454 3.10021 49.0086 8.13649C49.2434 12.7792 51.8349 15.2213 56.3172 14.9842C56.8785 14.9574 57.4159 14.8814 57.9055 14.7472C57.6706 14.774 57.4159 14.8008 57.1571 14.8277C52.7942 15.0379 50.2943 12.6763 50.0834 8.10966Z" fill="#002370"/>
<path d="M57.8338 5.43498L54.6811 8.47642C53.9088 7.37614 53.9566 6.32505 54.8204 5.30079C55.2424 4.93403 55.6842 4.75065 56.1261 4.72381C56.6913 4.67461 57.2526 4.9385 57.8338 5.43498ZM62.5032 12.0456C62.4554 12.0993 62.4117 12.1754 62.3639 12.229C62.3161 12.2827 62.2723 12.3587 62.2246 12.4124C62.1768 12.4661 62.1091 12.5421 62.0614 12.5958C62.0136 12.6495 61.9698 12.6987 61.922 12.7523C61.8504 12.806 61.8066 12.882 61.7349 12.9357C61.6872 12.9894 61.6434 13.0162 61.5956 13.0654C61.524 13.1191 61.4563 13.1951 61.3846 13.2488C61.3369 13.2756 61.313 13.3025 61.2692 13.3293C61.1975 13.383 61.106 13.459 61.0343 13.5127C61.0104 13.5395 60.9866 13.5395 60.9627 13.5664C60.075 14.197 59.0479 14.6175 57.9055 14.774C57.6706 14.8008 57.4158 14.8277 57.1571 14.8545C52.838 15.0916 50.3142 12.7031 50.1072 8.13649C49.9679 3.20309 52.0697 0.398694 56.0146 0.188476C56.4366 0.16164 56.8546 0.188474 57.2526 0.242147C57.6945 0.295819 58.0926 0.398692 58.4906 0.532873C58.5145 0.532873 58.5623 0.559714 58.5822 0.559714C58.6737 0.58655 58.7693 0.640219 58.8847 0.689419C58.9325 0.716255 58.9763 0.716258 59.0241 0.743095C59.1156 0.796767 59.2111 0.823604 59.2828 0.872804C59.3306 0.899641 59.3744 0.926474 59.4221 0.95331C59.4938 1.00698 59.5853 1.05618 59.657 1.10986C59.7048 1.13669 59.7485 1.19037 59.7963 1.21273C59.868 1.2664 59.9356 1.3156 60.0073 1.36927C60.0551 1.39611 60.0989 1.44978 60.1466 1.49898C60.2183 1.55266 60.2859 1.60186 60.3576 1.68237C60.4293 1.76287 60.4969 1.81207 60.5686 1.89258C60.6402 1.97309 60.7318 2.07596 60.8034 2.15647C60.8512 2.21014 60.9189 2.28618 60.9667 2.36669C61.0144 2.42036 61.0582 2.4964 61.0821 2.55007C61.1299 2.63058 61.1737 2.67978 61.2214 2.76029C61.2692 2.81396 61.2931 2.89 61.3369 2.94367C61.3846 3.02418 61.4284 3.10022 61.4762 3.18073C61.5001 3.2344 61.5478 3.31043 61.5677 3.36411C61.6155 3.44461 61.6394 3.54749 61.6832 3.65483C61.7071 3.70851 61.731 3.78454 61.7548 3.83821C61.8026 3.94109 61.8265 4.04843 61.8703 4.17814C61.8942 4.23181 61.918 4.28101 61.918 4.33468C61.9658 4.51806 62.0096 4.67461 62.0574 4.85799L62.2922 5.85541L61.6155 6.53974L61.3369 6.83046L63.1361 8.77162L64 9.71537L63.3471 10.8693C63.2556 11.0259 63.1839 11.1601 63.0884 11.3166C63.0645 11.3703 63.0167 11.4195 62.9968 11.4731C62.9491 11.5537 62.8814 11.6565 62.8097 11.737C62.762 11.7907 62.7182 11.8399 62.6943 11.8936C62.5988 11.8891 62.551 11.9651 62.5032 12.0456ZM62.0852 9.92111L60.1227 7.79657C59.4938 8.95053 58.4668 9.55435 57.0417 9.63485C56.7829 9.66169 56.5281 9.63485 56.2495 9.63485L60.6163 5.25607C60.0789 2.89447 58.5623 1.74051 56.0863 1.84785C52.9574 2.03123 51.4408 4.07974 51.5801 8.0381C51.7433 11.6565 53.5864 13.3651 57.1133 13.1817C59.2828 13.0162 60.9428 11.9428 62.0852 9.92111Z" fill="white"/>
<path d="M60.0989 7.79657C59.47 8.95054 58.4429 9.55435 57.0178 9.63486C56.7591 9.6617 56.5043 9.63486 56.2257 9.63486L60.5925 5.25607C60.0551 2.89448 58.5385 1.74051 56.0625 1.84786C52.9336 2.03124 51.417 4.07975 51.5563 8.0381C51.7195 11.6565 53.5626 13.3651 57.0895 13.1817C59.3068 13.052 60.9667 11.9741 62.0853 9.9569L60.0989 7.79657ZM54.8245 5.30527C55.2464 4.93851 55.6883 4.75513 56.1301 4.72829C56.6914 4.70145 57.2527 4.93851 57.8339 5.46182L54.6812 8.50327C53.9129 7.37614 53.9606 6.32505 54.8245 5.30527Z" fill="#E76F51"/>
</svg>
