<svg width="24" height="28" viewBox="0 0 24 28" fill="none" xmlns="http://www.w3.org/2000/svg">
<g clip-path="url(#clip0)">
<path d="M13.3259 14.0008L23.7254 1.86794C24.0916 1.44077 24.0916 0.748213 23.7254 0.321105C23.3593 -0.106004 22.7657 -0.106058 22.3996 0.321105L12 12.4539L1.60046 0.321105C1.23432 -0.106058 0.640698 -0.106058 0.274605 0.321105C-0.0914881 0.748268 -0.091535 1.44083 0.274605 1.86794L10.6741 14.0007L0.274605 26.1336C-0.091535 26.5607 -0.091535 27.2533 0.274605 27.6804C0.457651 27.8939 0.697604 28.0007 0.937557 28.0007C1.17751 28.0007 1.41742 27.8939 1.60051 27.6804L12 15.5476L22.3995 27.6804C22.5826 27.8939 22.8225 28.0007 23.0625 28.0007C23.3024 28.0007 23.5423 27.8939 23.7254 27.6804C24.0916 27.2532 24.0916 26.5607 23.7254 26.1336L13.3259 14.0008Z" fill="black"/>
</g>
<defs>
<clipPath id="clip0">
<rect width="24" height="28" fill="white"/>
</clipPath>
</defs>
</svg>
