<svg width="145" height="25" viewBox="0 0 145 25" fill="none" xmlns="http://www.w3.org/2000/svg">
<path d="M112.528 13.5161C112.203 5.29375 117.107 0.619763 126.312 0.2694C127.296 0.224673 128.272 0.269396 129.2 0.358851C127.677 0.097942 126.042 -0.0362359 124.296 0.00849132C114.711 0.403581 109.639 5.16702 110.02 13.5608C110.568 21.2986 116.615 25.3688 127.073 24.9737C128.383 24.929 129.637 24.8023 130.78 24.5786C130.231 24.6233 129.637 24.6681 129.033 24.7128C118.853 25.0632 113.02 21.1272 112.528 13.5161Z" fill="#002370"/>
<path d="M130.612 9.05828L123.256 14.1274C121.454 12.2935 121.565 10.5417 123.581 8.83465C124.566 8.22338 125.597 7.91774 126.628 7.87301C127.947 7.79101 129.256 8.23083 130.612 9.05828ZM141.508 20.0761C141.396 20.1655 141.294 20.2923 141.182 20.3817C141.071 20.4712 140.969 20.5979 140.857 20.6873C140.746 20.7768 140.588 20.9035 140.477 20.993C140.365 21.0824 140.263 21.1644 140.151 21.2539C139.984 21.3433 139.882 21.4701 139.715 21.5595C139.603 21.649 139.501 21.6937 139.39 21.7757C139.223 21.8652 139.065 21.9919 138.898 22.0813C138.786 22.1261 138.73 22.1708 138.628 22.2155C138.461 22.305 138.247 22.4317 138.08 22.5212C138.024 22.5659 137.969 22.5659 137.913 22.6106C135.842 23.6617 133.445 24.3624 130.779 24.6233C130.231 24.6681 129.637 24.7128 129.033 24.7575C118.955 25.1526 113.067 21.1719 112.584 13.5608C112.258 5.33847 117.163 0.66448 126.367 0.314117C127.352 0.26939 128.327 0.314114 129.256 0.403568C130.287 0.493022 131.216 0.664476 132.145 0.888112C132.201 0.888112 132.312 0.932847 132.358 0.932847C132.572 0.977574 132.795 1.06702 133.064 1.14902C133.176 1.19375 133.278 1.19375 133.389 1.23848C133.603 1.32793 133.826 1.37266 133.993 1.45466C134.105 1.49939 134.207 1.54411 134.318 1.58884C134.486 1.67829 134.699 1.76029 134.866 1.84975C134.978 1.89448 135.08 1.98393 135.191 2.02121C135.359 2.11066 135.517 2.19266 135.684 2.28211C135.795 2.32684 135.897 2.4163 136.009 2.4983C136.176 2.58775 136.334 2.66975 136.501 2.80393C136.668 2.93811 136.826 3.02011 136.993 3.15429C137.161 3.28847 137.374 3.45993 137.541 3.59411C137.653 3.68356 137.811 3.81029 137.922 3.94447C138.034 4.03392 138.136 4.16066 138.192 4.25011C138.303 4.38429 138.405 4.46629 138.517 4.60047C138.628 4.68993 138.684 4.81665 138.786 4.90611C138.898 5.04029 139 5.16702 139.111 5.3012C139.167 5.39065 139.278 5.51738 139.325 5.60683C139.436 5.74101 139.492 5.91247 139.594 6.09138C139.65 6.18083 139.706 6.30756 139.761 6.39701C139.873 6.56847 139.929 6.74737 140.031 6.96355C140.086 7.05301 140.142 7.13501 140.142 7.22446C140.254 7.5301 140.356 7.79101 140.467 8.09665L141.015 9.759L139.436 10.8995L138.786 11.3841L142.984 14.6194L145 16.1923L143.477 18.1155C143.263 18.3764 143.096 18.6001 142.873 18.861C142.817 18.9504 142.706 19.0324 142.659 19.1219C142.548 19.2561 142.39 19.4275 142.223 19.5617C142.111 19.6512 142.009 19.7332 141.953 19.8226C141.73 19.8152 141.619 19.9419 141.508 20.0761ZM140.532 16.5352L135.953 12.9943C134.486 14.9175 132.089 15.9239 128.764 16.0581C128.16 16.1028 127.566 16.0581 126.916 16.0581L137.105 8.7601C135.851 4.82411 132.312 2.90084 126.535 3.07975C119.234 3.38538 115.695 6.79956 116.02 13.3968C116.401 19.4275 120.702 22.2752 128.931 21.9695C133.993 21.6937 137.866 19.9046 140.532 16.5352Z" fill="#0042BD"/>
<path d="M135.897 12.9943C134.43 14.9175 132.034 15.9239 128.708 16.0581C128.105 16.1028 127.51 16.0581 126.86 16.0581L137.049 8.76011C135.795 4.82412 132.256 2.90085 126.479 3.07976C119.178 3.38539 115.64 6.79957 115.965 13.3968C116.345 19.4275 120.646 22.2752 128.875 21.9695C134.049 21.7534 137.922 19.9568 140.532 16.5948L135.897 12.9943ZM123.59 8.84211C124.575 8.23084 125.606 7.9252 126.637 7.88047C127.947 7.83575 129.256 8.23084 130.612 9.10302L123.256 14.1721C121.463 12.2936 121.575 10.5417 123.59 8.84211Z" fill="#FFE000"/>
<path d="M79.6768 22.1631L79.9614 24.2548L77.53 23.4724L77.2454 21.3807L75.3343 8.36172L77.3348 8.1435L77.6194 8.11156L79.6768 22.1631ZM87.6868 3.84288L90.1183 1.65531L91.9805 0L90.167 0.154355L87.5404 2.40047L87.638 3.11901L87.6868 3.84288ZM73.6673 4.61997L73.4315 2.87418L76.0093 2.5016L84.0193 1.31467L87.4022 0.814346L84.9707 0.031934L81.5878 0.532255L73.5778 1.71918L71 2.09176L71.2358 3.83755L71.4717 5.55674L71.7563 7.68043L74.1877 8.46285L73.9031 6.33915L73.6673 4.61997ZM90.8827 18.73L90.9802 20.0075L103.048 25L105.577 24.7818L101.235 23.004L90.8827 18.73Z" fill="#001D63"/>
<path d="M104.569 15.7973L94.8835 12.0502L100.795 7.14818L102.658 5.58867L100.324 4.36981L94.4119 1.27741L91.9804 0L90.1182 1.65531L87.6868 3.84288L87.5892 3.12433L87.3533 0.846286L83.9705 1.3466L75.9605 2.53353L73.3826 2.90611L73.6184 4.65191L73.8543 6.37109L74.1389 8.49478L77.286 8.14882L77.5706 8.11688L79.6198 22.195L79.9045 24.2868L83.0515 23.9408L88.443 23.35L91.0697 23.0679L90.9233 21.2902L90.7362 18.7939L101.088 23.0413L105.431 24.819L105.667 21.4179L105.902 17.6389L106 16.452L104.569 15.7973ZM102.804 21.2902L87.5892 15.0788L88.069 21.3541L82.6287 21.9449L80.2948 5.77496L76.8631 6.14754L76.6761 4.42836L84.6373 3.24143L85.2553 9.36236L92.5497 2.77305L98.4616 5.86544L90.4028 12.5452L103.04 17.4473L102.804 21.2902Z" fill="#0042BD"/>
<path d="M98.4698 5.92932L92.5497 2.8103L85.3041 9.39962L84.6373 3.27869L76.668 4.43368L76.8631 6.15286L80.2948 5.77497L82.6775 21.9449L88.069 21.3541L87.5892 15.0788L102.804 21.2902L103.048 17.5165L90.4029 12.6144L98.4698 5.92932Z" fill="#FFE000"/>
<path d="M54.108 24.4257C52.6208 24.4257 51.1862 24.2684 49.7953 23.9881C47.8445 23.5847 46.1037 22.9078 44.5116 21.9438C42.867 20.9798 41.5374 19.7354 40.6101 18.2928C39.6391 16.8091 39.1755 15.2434 39.123 13.6435C39.0705 12.1188 39.4291 10.5942 40.1465 9.11049C40.8638 7.66786 41.8873 6.30043 43.2782 5.09709C44.6603 3.89376 46.3574 2.8887 48.3082 2.12977C50.2589 1.37085 52.3147 0.885415 54.4141 0.728161C56.4699 0.570907 58.5169 0.687137 60.3627 1.09053C60.7738 1.17257 61.185 1.28881 61.6486 1.41187C60.6251 1.00848 59.5928 0.68714 58.4644 0.44784C56.4611 0.0444487 54.3092 -0.112805 52.1572 0.0854724C49.9528 0.242727 47.7921 0.769183 45.7451 1.56913C43.6893 2.36907 41.896 3.45618 40.4089 4.70054C38.9218 5.98592 37.8458 7.38753 37.076 8.91222C36.3587 10.4369 36 12.0368 36 13.6845C36.0525 15.3665 36.5686 17.0142 37.5921 18.5799C38.6156 20.1046 40.0065 21.4242 41.6948 22.4292C43.3832 23.4343 45.2377 24.1522 47.2847 24.5556C48.7718 24.8769 50.2589 25 51.7986 25C52.3584 25 52.927 24.959 53.5394 24.918C55.5426 24.7607 57.5371 24.3163 59.4879 23.5916C58.2544 23.9129 56.9773 24.1522 55.6913 24.2342C55.184 24.3915 54.6241 24.4257 54.108 24.4257Z" fill="#001D63"/>
<path d="M69.5041 6.78584C68.5768 5.34321 67.2472 4.09885 65.6551 3.13481C64.4216 2.41008 63.092 1.80841 61.6048 1.41185C61.1937 1.28878 60.7825 1.17255 60.3189 1.09051C58.4206 0.687115 56.4174 0.570885 54.3704 0.728139C52.3147 0.885393 50.2677 1.37083 48.2644 2.12975C46.3137 2.88867 44.6253 3.89374 43.2344 5.09707C41.8523 6.30041 40.7676 7.661 40.1027 9.11047C39.3854 10.5531 39.0792 12.0778 39.0792 13.6435C39.1317 15.2502 39.5953 16.7749 40.5664 18.2927C41.4936 19.7354 42.8233 20.9797 44.4679 21.9438C46.06 22.9078 47.8533 23.5847 49.7516 23.9881C51.1337 24.2684 52.5771 24.4257 54.0642 24.4257C54.5803 24.4257 55.1402 24.4257 55.7088 24.3846C56.9947 24.3026 58.2719 24.0633 59.5054 23.7419C60.2752 23.5437 61.045 23.2633 61.8148 22.983C63.7131 22.2241 65.4101 21.219 66.7923 20.0157C68.1744 18.8124 69.2592 17.4518 69.9765 16.0023C70.6938 14.5597 71 13.035 71 11.4693C70.9388 9.82837 70.4751 8.2695 69.5041 6.78584ZM55.4464 21.8207C53.7493 21.9438 52.166 21.8207 50.6263 21.4994C49.0867 21.178 47.7046 20.6584 46.4186 19.8926C45.1327 19.1337 44.1617 18.2107 43.4444 17.0826C42.7271 15.9613 42.3159 14.7579 42.3159 13.5546C42.2634 12.3513 42.5696 11.1479 43.1382 9.98563C43.7068 8.82331 44.5204 7.74304 45.6488 6.77901C46.7773 5.81497 48.1157 5.01502 49.7516 4.37233C51.3437 3.72964 52.9882 3.33309 54.6766 3.21002C56.3736 3.08695 57.957 3.169 59.4966 3.49034C61.0362 3.81169 62.4184 4.33131 63.6518 5.09707C64.8853 5.85599 65.8563 6.77901 66.6261 7.90713C67.3434 9.02842 67.7546 10.2318 67.7546 11.4351C67.807 12.6384 67.5009 13.8418 66.9323 15.0041C66.3637 16.1664 65.4976 17.2467 64.3691 18.2107C63.2407 19.2158 61.8585 20.0157 60.3189 20.6584C58.7268 21.3421 57.0822 21.7045 55.4464 21.8207ZM60.3714 13.1581C59.9078 13.5614 59.3479 13.8828 58.7793 14.0811C58.062 14.3614 57.3971 14.5255 56.6273 14.6007C55.91 14.6417 55.1927 14.6007 54.5716 14.4776C53.9068 14.3204 53.3382 14.1153 52.7783 13.7529C52.2184 13.4315 51.8073 12.994 51.4924 12.5085C51.1862 12.0299 50.9762 11.5445 50.9762 10.9838C50.9762 10.4642 51.0812 9.9446 51.3349 9.41814C51.5886 8.93954 51.9473 8.45411 52.4634 8.01653C52.9795 7.57211 53.5394 7.21658 54.2567 6.93626C54.8165 6.73798 55.5426 6.57389 56.4086 6.45766C57.2834 6.33459 58.1057 6.41664 58.8755 6.65594C58.6743 6.69696 58.3594 6.69696 58.0007 6.69696C57.6421 6.69696 57.1784 6.77901 56.7148 6.97728C55.7438 7.38068 55.1752 7.9003 55.0702 8.54299C54.9128 9.18568 55.0702 9.78735 55.4814 10.307C55.945 10.9907 56.6098 11.3872 57.3796 11.5513C58.1495 11.7086 58.9193 11.6744 59.6366 11.4283C60.3014 11.189 60.8175 10.7856 61.1237 10.2249C61.4299 9.7053 61.6398 9.17884 61.6923 8.65922C61.946 9.21986 62.1035 9.73949 62.051 10.2659C61.9985 10.7856 61.8498 11.312 61.5873 11.7906C61.1849 12.3581 60.8263 12.7957 60.3714 13.1581Z" fill="#0042BD"/>
<path d="M66.6261 7.94817C65.9088 6.82688 64.929 5.90386 63.6518 5.1381C62.4184 4.37918 61.0362 3.85272 59.4966 3.53138C57.957 3.21003 56.3649 3.12799 54.6766 3.25105C52.9795 3.37412 51.3437 3.77068 49.7516 4.41337C48.1595 5.05606 46.7773 5.856 45.6488 6.82004C44.5204 7.78408 43.6981 8.86434 43.1382 10.0267C42.5784 11.189 42.3159 12.3923 42.3159 13.5956C42.3684 14.799 42.7271 16.0023 43.4444 17.1236C44.1617 18.2449 45.1852 19.1679 46.4186 19.9337C47.7046 20.6926 49.0867 21.2191 50.6263 21.5404C52.166 21.8617 53.7581 21.9438 55.4464 21.8617C57.1435 21.7387 58.7268 21.3831 60.3714 20.7405C61.9635 20.0978 63.2932 19.2978 64.4216 18.2928C65.5501 17.2877 66.4249 16.2485 66.9848 15.0861C67.5446 13.9238 67.807 12.7205 67.807 11.5172C67.7021 10.2318 67.3434 9.06946 66.6261 7.94817ZM54.5191 14.5255C53.8543 14.3682 53.2857 14.1631 52.7258 13.8008C52.1572 13.4794 51.7548 13.0418 51.4399 12.5564C51.1337 12.0778 50.9238 11.5924 50.9238 11.0317C50.9238 10.5121 51.0287 9.98564 51.2824 9.46601C51.5361 8.98741 51.8948 8.50198 52.4109 8.0644C52.927 7.62682 53.4869 7.26445 54.2042 6.98413C54.7728 6.78585 55.4901 6.62176 56.3562 6.50553C57.2309 6.38246 58.0532 6.46451 58.823 6.70381C58.6218 6.74483 58.3069 6.74483 57.9483 6.74483C57.5896 6.74483 57.126 6.82688 56.6623 7.02515C55.6913 7.42854 55.1227 7.94817 55.0177 8.59086C54.8603 9.23355 55.0177 9.83522 55.4289 10.3548C55.8925 11.0386 56.5574 11.4351 57.3272 11.5992C58.097 11.7565 58.8668 11.7223 59.5841 11.4761C60.2489 11.2368 60.7651 10.8334 61.0712 10.2728C61.3774 9.75317 61.5874 9.22671 61.6398 8.70709C61.8935 9.26774 62.051 9.78736 61.9985 10.3138C61.946 10.8334 61.7973 11.3531 61.5349 11.8385C61.2812 12.3171 60.87 12.7615 60.4064 13.1649C59.9428 13.5683 59.3829 13.8896 58.8143 14.0879C58.097 14.3682 57.4321 14.5323 56.6623 14.6075C55.9013 14.6827 55.184 14.6417 54.5191 14.5255Z" fill="#FFE000"/>
<path d="M4.51146 9.45946L5.04489 11.5565L2.34162 10.7599L1.8082 8.66292L0.479178 3.67239L0 1.79756L3.07394 1.38574C8.85114 0.589211 13.4169 0.144885 17.0694 0.0202571C20.731 -0.0772777 23.4343 0.177398 25.3419 0.784281C25.7126 0.908909 26.1376 1.03895 26.5082 1.19609C24.7543 0.843885 22.5302 0.719257 19.7727 0.816792C16.1111 0.914327 11.5544 1.35865 5.7772 2.18228L2.70326 2.59409L3.18244 4.46893L4.51146 9.45946ZM8.6432 11.0796L8.48047 11.1121L6.31063 11.3993L9.91799 22.3666L10.4966 24.1764L13.1999 24.9729L12.6122 23.1631L8.6432 11.0796Z" fill="#001D63"/>
<path d="M34.9435 8.06148C34.0936 4.27929 30.7032 2.46948 28.0542 1.60792C27.8463 1.5429 27.575 1.4833 27.3128 1.38576C27.0507 1.32074 26.7794 1.26113 26.5172 1.22862C24.7633 0.876412 22.5392 0.751784 19.7817 0.849319C16.1201 0.946854 11.5634 1.39118 5.78622 2.21481L2.71228 2.62662L3.19146 4.50146L4.52048 9.49199L5.0539 11.589L6.32868 11.4318L8.49852 11.1447L8.66127 11.1121L12.5851 23.1902L13.1727 25L16.2467 24.7779L21.1831 24.4311L24.3112 24.2089L24.1033 22.3016L23.6241 17.6957C33.5692 15.1165 35.3684 11.1772 34.9435 8.06148ZM20.2066 16.2923L20.8395 22.3937L15.9121 22.7459L11.3012 8.66836L7.80237 9.11268L6.47334 4.12215C11.9883 3.35813 16.4456 2.91381 19.8902 2.82169C22.9099 2.72416 25.0888 2.91922 26.463 3.36355C29.3832 4.31722 31.1282 5.9699 31.6616 8.32157C32.0865 12.0008 28.2622 14.6397 20.2066 16.2923ZM25.134 8.76048C25.3419 9.93631 23.4343 11.0146 19.4562 11.9412L18.5521 7.68217C19.9264 7.49252 21.1017 7.36248 21.9425 7.32997C22.5754 7.29745 23.1088 7.32997 23.4795 7.4275C24.3384 7.61715 24.8718 8.06148 25.134 8.76048Z" fill="#0042BD"/>
<path d="M31.6616 8.34866C31.1282 5.99699 29.3832 4.34432 26.463 3.39065C25.0797 2.94632 22.9099 2.78918 19.8902 2.84879C16.4998 2.94632 11.9883 3.39065 6.47333 4.14925L7.80236 9.13978L11.3012 8.69545L15.9121 22.773L20.8395 22.4208L20.2066 16.3194C28.2622 14.6397 32.0865 12.0008 31.6616 8.34866ZM19.5105 11.9412L18.6064 7.68218C19.9806 7.49253 21.1559 7.36248 21.9967 7.32997C22.6296 7.29746 23.163 7.32997 23.5337 7.4275C24.3836 7.61715 24.9079 8.06148 25.1792 8.76048C25.3509 9.93631 23.4885 10.9875 19.5105 11.9412Z" fill="#FFE000"/>
</svg>
