<svg width="25" height="25" viewBox="0 0 25 25" fill="none" xmlns="http://www.w3.org/2000/svg">
<path d="M21.6402 21.5922L20.3105 6.96094C20.273 6.55781 19.9355 6.25 19.5308 6.25H17.1871V4.6875C17.1871 3.43125 16.7011 2.25156 15.8183 1.36875C14.9355 0.485937 13.7558 0 12.4996 0C9.91519 0 7.81207 2.10312 7.81207 4.6875V6.25H5.46832C5.06363 6.25 4.72613 6.55781 4.69019 6.96094L3.3605 21.5922C3.28082 22.4641 3.57457 23.3359 4.16519 23.9828C4.75582 24.6297 5.59644 25 6.473 25H18.5277C19.4043 25 20.2449 24.6297 20.8355 23.9828C21.4261 23.3359 21.7183 22.4641 21.6402 21.5922ZM9.37457 4.6875C9.37457 2.96406 10.7761 1.5625 12.4996 1.5625C13.3386 1.5625 14.1246 1.88594 14.7136 2.47344C15.3027 3.06094 15.6246 3.84844 15.6246 4.6875V6.25H9.37457V4.6875ZM19.6808 22.9297C19.3808 23.2563 18.9714 23.4375 18.5261 23.4375H6.473C6.02925 23.4375 5.61832 23.2562 5.31988 22.9281C5.01988 22.6 4.87769 22.1766 4.91832 21.7328L6.18238 7.8125H7.81207V10.1562C7.81207 10.5875 8.16207 10.9375 8.59332 10.9375C9.02457 10.9375 9.37457 10.5875 9.37457 10.1562V7.8125H15.6246V10.1562C15.6246 10.5875 15.9746 10.9375 16.4058 10.9375C16.8371 10.9375 17.1871 10.5875 17.1871 10.1562V7.8125H18.8168L20.0824 21.7344C20.123 22.1766 19.9808 22.6016 19.6808 22.9297Z" fill="white"/>
</svg>
