<svg width="78" height="16" viewBox="0 0 78 16" fill="none" xmlns="http://www.w3.org/2000/svg">
<path d="M5.20833 14.0773L5.56679 15L4.41789 14.5086L4.05944 13.5859L0.484068 4.19211L0 2.93849L1.18566 2.5273L3.44975 1.72498L4.54657 1.33385L5.12255 1.58792V1.56786L6.00184 1.47092L7.53064 1.29374L8.39461 1.19679L9.02267 1.47092L9.04105 1.27368L9.1299 0L10.2788 0.137062L12.6501 0.431245L13.799 0.568308L14.9479 1.05973L13.799 0.922665L11.4277 0.628482L10.2788 0.49142L10.19 1.7651L10.0827 3.25607L9.84988 2.57076L9.54351 1.66815L8.67953 1.7651L7.15073 1.94228L6.27145 2.03922L6.14583 2.99866L6.10907 3.3129L6.0386 2.99866L5.71385 1.78181L4.61703 2.17294L2.35294 2.9786L1.16728 3.38979L1.65135 4.64341L5.20833 14.0773ZM9.1636 14.2345L9.54044 14.4116L9.10846 12.3925L9.1636 14.2345Z" fill="#001D63"/>
<path d="M13.799 0.919314L11.4277 0.625131L10.2788 0.488068L10.1899 1.76175L10.0827 3.25272L9.84984 2.56741L9.54346 1.6648L8.67949 1.76175L7.15069 1.93893L6.2714 2.03587L6.14579 2.99531L6.10903 3.30955L6.03856 2.99531L5.71381 1.77846L4.61699 2.16959L2.3529 2.97525L1.16724 3.38644L1.6513 4.64006L5.22667 14.0305L5.58513 14.9532L6.4828 14.756L8.38844 14.3448L9.19726 14.1676L9.14211 12.3457L9.5741 14.3648H10.3278L12.2671 14.3448H13.2383L13.3823 13.285L14.8376 2.30331L15 1.02963L13.799 0.919314ZM12.2365 13.1547L10.2971 13.1747L8.64273 8.86226L8.14028 13.1948L6.23464 13.606L2.64089 4.2155L4.90498 3.40984L6.4491 9.27345L7.22116 3.19589L8.74996 3.01871L10.7261 8.95921L11.2653 1.86204L13.6366 2.13616L12.2365 13.1547Z" fill="#0042BD"/>
<path d="M10.763 8.97928L8.78687 3.03878L7.25808 3.21262L6.48602 9.27346L4.92352 3.40986L2.65942 4.21552L6.25317 13.5859L8.15575 13.1948L8.64288 8.86227L10.2942 13.1747L12.2366 13.1547L13.6735 2.15624L11.3022 1.88211L10.763 8.97928Z" fill="white"/>
<path d="M66.5219 14.5673L66.662 15.8036L65.7695 15.2691L65.6294 14.0328L64.901 7.61473L65.7215 7.53109L66.5219 14.5673ZM71.3565 15.6982L71.9448 15.9964L71.4045 14.6946L71.3565 15.6982ZM63.9845 3.30573L63.8925 2.04758L65.2772 1.87667C66.662 1.70577 67.8826 1.60031 68.9632 1.55668C71.1243 1.47304 72.6251 1.62213 73.6577 2.09121C73.4936 1.96394 73.3295 1.85485 73.1654 1.7494C72.1569 1.15305 70.536 0.916691 68.0707 1.02578C67.0141 1.06942 65.7695 1.17487 64.3847 1.34577L63 1.51668L63.0921 2.77483L63.3042 5.7384L63.3962 7.14565L64.2887 7.68018L64.1966 6.27294L63.9845 3.30573Z" fill="#001D63"/>
<path d="M72.389 6.50567C72.413 7.21111 71.6126 7.76383 70.0198 8.18927L69.9037 5.67296C70.2559 5.62933 70.5841 5.58933 70.8442 5.58933C71.2884 5.56751 71.6206 5.61115 71.8287 5.69478C72.1529 5.82205 72.341 6.10205 72.389 6.50567ZM78 13.5855L76.2871 14.2691L73.3535 15.4437L71.9448 16L71.4045 14.6982L71.3805 15.7018L69.9717 15.7455L68.0467 15.7891L66.686 15.8327L66.5459 14.5964L65.7495 7.55656L64.3167 7.70565L64.2247 6.29841L64.0126 3.33483L63.9205 2.07668L65.3052 1.90577C66.69 1.73487 67.9106 1.62942 68.9912 1.58578C71.1524 1.50215 72.6532 1.65123 73.6857 2.12031C73.8258 2.18577 73.9659 2.24758 74.0859 2.33486C75.1185 2.95302 76.3631 4.16754 76.4792 6.47295V6.51658V6.56022C76.4552 7.86201 75.9629 9.01471 75.0464 9.93105L76.9474 12.2546L78 13.5855ZM75.6988 13.0328L72.9773 9.7056C74.246 8.91653 74.9024 7.8511 74.9264 6.50567C74.8543 5.09843 74.294 4.073 73.2135 3.43301C72.4851 3.00757 71.0763 2.83666 68.9872 2.9203C67.9787 2.96393 66.782 3.06938 65.4413 3.24029L65.6534 6.20386L67.0382 6.05477L67.9987 14.4582L69.9237 14.4146L70.0398 10.811C70.44 10.7274 70.8162 10.6183 71.1684 10.5129L72.7412 14.2255L75.6988 13.0328Z" fill="#0042BD"/>
<path d="M74.9464 6.48386C74.8743 5.07661 74.314 4.05118 73.2334 3.41119C72.5051 2.98575 71.0963 2.81484 69.0072 2.89848C67.9987 2.94211 66.802 3.04757 65.4613 3.21847L65.6734 6.18204L67.0582 6.03296L68.0187 14.4364L69.9437 14.3928L70.0598 10.7892C70.46 10.7056 70.8362 10.5965 71.1884 10.491L72.7612 14.2037L75.6948 13.0292L72.9733 9.70197C74.266 8.91653 74.8983 7.82928 74.9464 6.48386ZM70.0157 8.18927L69.8997 5.67296C70.2519 5.62933 70.58 5.58933 70.8402 5.58933C71.2844 5.56751 71.6166 5.61115 71.8247 5.69478C72.1289 5.82205 72.341 6.12023 72.389 6.52749C72.413 7.22929 71.6126 7.78564 70.0157 8.18927Z" fill="white"/>
<path d="M48.0834 9.10966C47.944 4.17625 50.0459 1.37186 53.9908 1.16164C54.4127 1.1348 54.8307 1.16164 55.2288 1.21531C54.5759 1.05877 53.8753 0.978258 53.127 1.00509C49.0188 1.24215 46.8454 4.10021 47.0086 9.13649C47.2434 13.7792 49.8349 16.2213 54.3172 15.9842C54.8785 15.9574 55.4159 15.8814 55.9055 15.7472C55.6706 15.774 55.4159 15.8008 55.1571 15.8277C50.7942 16.0379 48.2943 13.6763 48.0834 9.10966Z" fill="#002370"/>
<path d="M55.8339 6.43498L52.6811 9.47642C51.9089 8.37614 51.9566 7.32505 52.8205 6.30079C53.2424 5.93403 53.6843 5.75065 54.1261 5.72381C54.6914 5.67461 55.2527 5.9385 55.8339 6.43498ZM60.5033 13.0456C60.4555 13.0993 60.4117 13.1754 60.3639 13.229C60.3162 13.2827 60.2724 13.3587 60.2246 13.4124C60.1769 13.4661 60.1092 13.5421 60.0614 13.5958C60.0136 13.6495 59.9699 13.6987 59.9221 13.7523C59.8504 13.806 59.8066 13.882 59.735 13.9357C59.6872 13.9894 59.6434 14.0162 59.5957 14.0654C59.524 14.1191 59.4563 14.1951 59.3847 14.2488C59.3369 14.2756 59.313 14.3025 59.2692 14.3293C59.1976 14.383 59.106 14.459 59.0344 14.5127C59.0105 14.5395 58.9866 14.5395 58.9627 14.5664C58.075 15.197 57.048 15.6175 55.9055 15.774C55.6707 15.8008 55.4159 15.8277 55.1572 15.8545C50.8381 16.0916 48.3143 13.7031 48.1073 9.13649C47.968 4.20309 50.0698 1.39869 54.0147 1.18848C54.4366 1.16164 54.8546 1.18847 55.2527 1.24215C55.6946 1.29582 56.0926 1.39869 56.4907 1.53287C56.5146 1.53287 56.5624 1.55971 56.5823 1.55971C56.6738 1.58655 56.7693 1.64022 56.8848 1.68942C56.9326 1.71625 56.9763 1.71626 57.0241 1.74309C57.1157 1.79677 57.2112 1.8236 57.2829 1.8728C57.3306 1.89964 57.3744 1.92647 57.4222 1.95331C57.4938 2.00698 57.5854 2.05618 57.6571 2.10986C57.7048 2.13669 57.7486 2.19037 57.7964 2.21273C57.868 2.2664 57.9357 2.3156 58.0074 2.36927C58.0551 2.39611 58.0989 2.44978 58.1467 2.49898C58.2183 2.55266 58.286 2.60186 58.3577 2.68237C58.4293 2.76287 58.497 2.81207 58.5686 2.89258C58.6403 2.97309 58.7319 3.07596 58.8035 3.15647C58.8513 3.21014 58.9189 3.28618 58.9667 3.36669C59.0145 3.42036 59.0583 3.4964 59.0822 3.55007C59.1299 3.63058 59.1737 3.67978 59.2215 3.76029C59.2692 3.81396 59.2931 3.89 59.3369 3.94367C59.3847 4.02418 59.4285 4.10022 59.4762 4.18073C59.5001 4.2344 59.5479 4.31043 59.5678 4.36411C59.6156 4.44461 59.6395 4.54749 59.6832 4.65483C59.7071 4.70851 59.731 4.78454 59.7549 4.83821C59.8027 4.94109 59.8265 5.04843 59.8703 5.17814C59.8942 5.23181 59.9181 5.28101 59.9181 5.33468C59.9659 5.51806 60.0097 5.67461 60.0574 5.85799L60.2923 6.85541L59.6156 7.53974L59.3369 7.83046L61.1362 9.77162L62 10.7154L61.3472 11.8693C61.2556 12.0259 61.184 12.1601 61.0884 12.3166C61.0646 12.3703 61.0168 12.4195 60.9969 12.4731C60.9491 12.5537 60.8814 12.6565 60.8098 12.737C60.762 12.7907 60.7182 12.8399 60.6944 12.8936C60.5988 12.8891 60.551 12.9651 60.5033 13.0456ZM60.0853 10.9211L58.1228 8.79657C57.4938 9.95053 56.4668 10.5543 55.0417 10.6349C54.783 10.6617 54.5282 10.6349 54.2495 10.6349L58.6164 6.25607C58.079 3.89447 56.5624 2.74051 54.0863 2.84785C50.9575 3.03123 49.4408 5.07974 49.5801 9.0381C49.7434 12.6565 51.5864 14.3651 55.1134 14.1817C57.2829 14.0162 58.9428 12.9428 60.0853 10.9211Z" fill="#0042BD"/>
<path d="M58.0989 8.79657C57.4699 9.95054 56.4429 10.5544 55.0178 10.6349C54.759 10.6617 54.5043 10.6349 54.2256 10.6349L58.5925 6.25607C58.0551 3.89448 56.5384 2.74051 54.0624 2.84786C50.9336 3.03124 49.4169 5.07975 49.5562 9.0381C49.7194 12.6565 51.5625 14.3651 55.0894 14.1817C57.3067 14.052 58.9667 12.9741 60.0853 10.9569L58.0989 8.79657ZM52.8244 6.30527C53.2464 5.93851 53.6882 5.75513 54.1301 5.72829C54.6914 5.70145 55.2526 5.93851 55.8338 6.46182L52.6811 9.50327C51.9128 8.37614 51.9606 7.32505 52.8244 6.30527Z" fill="white"/>
<path d="M33.3611 6.61017L33.4331 7.92203L32.2362 7.42373L32.1641 6.11186L32.048 3.54576L32 2.37288L33.3611 2.2339L44.1137 1.15932L45.735 1L46.9319 1.49831L45.3107 1.66102L34.558 2.7322L33.197 2.87119L33.245 4.04407L33.3611 6.61017ZM37.0681 7.64407L35.8951 7.72203L36.0352 13.9864L36.0592 15.4576L37.2562 15.9559L37.2322 14.4847L37.0681 7.64407Z" fill="#001D63"/>
<path d="M47 6.78983L46.976 5.65762L46.9279 2.87457L46.9039 1.48135L45.2826 1.64068L34.534 2.71525L33.1729 2.85423L33.221 4.02712L33.3371 6.59322L33.4091 7.90508L34.9344 7.80678L37.0721 7.66779L37.2362 14.5288L37.2602 16L38.9496 15.7424L42.7286 15.1661L44.1137 14.9458L43.9255 13.7525L42.9648 7.25084L45.6429 6.95254L47 6.78983ZM41.3435 6.1322L42.4724 13.8847L38.6934 14.461L38.5012 6.27118L34.7902 6.52881L34.6741 3.96271L45.4267 2.88813L45.4748 5.67118L41.3435 6.1322Z" fill="#0042BD"/>
<path d="M34.6982 3.98644L34.8142 6.55254L38.5252 6.29153L38.7134 14.4847L42.4924 13.8881L41.3435 6.1322L45.4988 5.67458L45.4508 2.91187L34.6982 3.98644Z" fill="white"/>
<path d="M24.5425 13.4833L24.8745 14.8291L24.1377 15L23.7328 13.3778H24.5182L24.5425 13.4833ZM17.8704 13.3123L17.587 12.3303L17.2794 11.2646L16.9231 10.0061L18.2996 9.62051L19.3441 9.34408L20.9352 2.09142L21.1498 1.13119L22.1943 1.00388L24.7368 0.683804L25.9231 0.534678L25.0202 0L23.834 0.149131L21.2713 0.447383L20.2267 0.574687L20.0121 1.53492L18.4211 8.78759L17.3765 9.06402L16 9.44956L16.9514 13.4396L17.4251 13.3742L17.2591 14.0798L18.2793 14.1853L18.4696 13.3123H17.8704Z" fill="#001D63"/>
<path d="M30.4332 11.9884L26.3239 1.55674L25.919 0.531036L24.7328 0.680163L22.1903 1.00024L21.1457 1.12754L20.9312 2.08777L19.3401 9.34044L18.2955 9.61687L16.919 10.0024L17.2753 11.2609L17.583 12.3266L17.8664 13.3087H18.4615L18.2712 14.1816L19.8866 14.3307L21.8097 14.5235L23.0202 14.6508L23.4008 13.6069L23.4939 13.3523H24.5141L24.5384 13.4578L24.8704 14.8036L25.6316 14.6326L26.3441 14.4617L29.4089 13.7561L31 13.3705L30.4332 11.9884ZM28.5789 12.563L25.9919 13.1814L25.7085 12.0502L22.4089 12.0065L21.9797 13.1996H21.8866L21.6963 13.1777L20.0567 13.0068L20.2712 11.9811L19.0121 11.9593L18.7044 10.8935L20.6032 10.3807L22.2672 2.78613L22.3158 2.53152L22.3644 2.31692L24.9271 2.01867L29.0364 12.4503L28.5789 12.563ZM24.3279 6.69617L24.9676 9.19132L23.2348 9.66052L24.3279 6.69617Z" fill="#0042BD"/>
<path d="M22.3806 2.34604L22.332 2.56063L22.2834 2.81524L20.6194 10.4098L18.7206 10.9227L19.0283 11.9884L20.2874 12.0102L20.0729 13.0359L21.7125 13.2069L21.9028 13.2287H21.9959L22.4251 12.0357L25.7247 12.0793L26.0081 13.2105L28.5951 12.5922L29.0445 12.4867L24.9109 2.03323L22.3806 2.34604ZM23.2591 9.66418L24.3279 6.69982L24.9676 9.19497L23.2591 9.66418Z" fill="white"/>
</svg>
