<svg width="25" height="25" viewBox="0 0 25 25" fill="none" xmlns="http://www.w3.org/2000/svg">
<g clip-path="url(#clip0)">
<path d="M24.5667 3.89569C24.2101 3.46322 23.6816 3.21536 23.1167 3.21536H8.6111C8.31399 3.21536 8.07287 3.45648 8.07287 3.7536C8.07287 4.05071 8.31399 4.29183 8.6111 4.29183H23.1164C23.3622 4.29183 23.5823 4.39437 23.736 4.5806C23.8921 4.77005 23.9545 5.0198 23.9074 5.26282L21.7563 16.0188C21.6729 16.4031 21.347 16.6714 20.9638 16.6714H8.99943L4.05975 1.7995C3.79275 1.0368 3.0699 0.524403 2.24207 0.524403C2.24183 0.524403 2.24154 0.524403 2.24124 0.524403C1.5391 0.548622 0.827037 0.548377 0.652623 0.536512C0.47904 0.498817 0.291442 0.547254 0.156921 0.681824C-0.0532836 0.892029 -0.0532836 1.2327 0.156921 1.44291C0.323522 1.60951 0.379772 1.66576 2.25985 1.60062C2.61239 1.60062 2.92752 1.82347 3.04085 2.14691L8.10031 17.3794C8.17351 17.5993 8.37912 17.7478 8.6111 17.7478H20.9637C21.8578 17.7478 22.6161 17.1307 22.8101 16.2386L24.9639 5.47078C25.0726 4.90784 24.9282 4.33382 24.5667 3.89569Z" fill="white"/>
<path d="M20.7224 20.7084H10.9264C10.5951 20.7084 10.2837 20.4802 10.1715 20.16L9.12197 17.0381C9.02724 16.7564 8.72123 16.6043 8.44028 16.6996C8.15849 16.794 8.00698 17.0995 8.1017 17.3813L9.15341 20.5092C9.42065 21.2722 10.133 21.7846 10.9264 21.7846H20.7223C21.0195 21.7846 21.2606 21.5437 21.2606 21.2466C21.2606 20.9495 21.0195 20.7084 20.7224 20.7084Z" fill="white"/>
<path d="M11.303 20.7082C10.2642 20.7082 9.41919 21.5535 9.41919 22.592C9.41919 23.6305 10.2642 24.4758 11.303 24.4758C12.3418 24.4758 13.1869 23.6305 13.1869 22.592C13.1869 21.5535 12.3418 20.7082 11.303 20.7082ZM11.303 23.3994C10.8579 23.3994 10.4957 23.0371 10.4957 22.592C10.4957 22.1469 10.8579 21.7846 11.303 21.7846C11.7481 21.7846 12.1104 22.1469 12.1104 22.592C12.1104 23.0372 11.7481 23.3994 11.303 23.3994Z" fill="white"/>
<path d="M20.7222 20.7082C19.6837 20.7082 18.8384 21.5535 18.8384 22.592C18.8384 23.6305 19.6837 24.4758 20.7222 24.4758C21.7607 24.4758 22.606 23.6305 22.606 22.592C22.606 21.5535 21.7607 20.7082 20.7222 20.7082ZM20.7222 23.3994C20.2771 23.3994 19.9148 23.0371 19.9148 22.592C19.9148 22.1469 20.2771 21.7846 20.7222 21.7846C21.1673 21.7846 21.5296 22.1469 21.5296 22.592C21.5296 23.0372 21.1673 23.3994 20.7222 23.3994Z" fill="white"/>
</g>
<defs>
<clipPath id="clip0">
<rect width="25" height="25" fill="white"/>
</clipPath>
</defs>
</svg>
