<svg width="30" height="30" viewBox="0 0 30 30" fill="none" xmlns="http://www.w3.org/2000/svg">
<path d="M3.55959 20.7749C-1.18658 16.0287 -1.18648 8.30592 3.55959 3.55968C8.30586 -1.18656 16.0286 -1.18656 20.7747 3.55968C24.8013 7.58622 25.4111 13.5747 22.6059 18.2511C22.6059 18.2511 22.4044 18.5891 22.6765 18.8611C24.2291 20.4136 28.8871 25.0717 28.8871 25.0717C30.1233 26.3077 30.4176 28.0362 29.3213 29.1326L29.1326 29.3211C28.0364 30.4176 26.3078 30.1234 25.0717 28.8872C25.0717 28.8872 20.4235 24.239 18.8741 22.6897C18.589 22.4045 18.251 22.606 18.251 22.606C13.5747 25.4112 7.58616 24.8014 3.55959 20.7749ZM18.5274 18.5275C22.0344 15.0205 22.0343 9.31429 18.5273 5.80731C15.0203 2.30042 9.31405 2.30032 5.80714 5.80731C2.30013 9.31419 2.30013 15.0205 5.80714 18.5275C9.31415 22.0343 15.0203 22.0343 18.5274 18.5275Z" fill="#2D6A4F"/>
<path d="M17.7507 11.4449C17.9139 11.4449 18.0798 11.4128 18.2398 11.3453C18.8787 11.0749 19.1776 10.3377 18.9072 9.69866C17.2076 5.68227 12.5574 3.79744 8.54109 5.49701C7.90218 5.76741 7.60326 6.50461 7.87367 7.14361C8.14417 7.78261 8.88118 8.08134 9.52038 7.81103C12.2606 6.6515 15.4336 7.93753 16.5931 10.6777C16.7959 11.157 17.2612 11.4449 17.7507 11.4449Z" fill="#2D6A4F"/>
</svg>
