<svg width="96" height="16" viewBox="0 0 96 16" fill="none" xmlns="http://www.w3.org/2000/svg">
<path d="M19.5219 13.5673L19.662 14.8036L18.7695 14.2691L18.6294 13.0328L17.901 6.61473L18.7215 6.53109L19.5219 13.5673ZM24.3565 14.6982L24.9448 14.9964L24.4045 13.6946L24.3565 14.6982ZM16.9845 2.30573L16.8925 1.04758L18.2772 0.87667C19.662 0.705765 20.8826 0.600313 21.9632 0.556677C24.1243 0.473043 25.6251 0.62213 26.6577 1.09121C26.4936 0.963941 26.3295 0.854853 26.1654 0.7494C25.1569 0.15305 23.536 -0.0833088 21.0707 0.0257798C20.0141 0.0694152 18.7695 0.174867 17.3847 0.345773L16 0.516678L16.0921 1.77483L16.3042 4.7384L16.3962 6.14565L17.2887 6.68018L17.1966 5.27294L16.9845 2.30573Z" fill="#001D63"/>
<path d="M25.3889 5.50567C25.4129 6.21111 24.6125 6.76383 23.0197 7.18927L22.9036 4.67296C23.2558 4.62933 23.584 4.58933 23.8441 4.58933C24.2883 4.56751 24.6205 4.61115 24.8286 4.69478C25.1528 4.82205 25.3409 5.10205 25.3889 5.50567ZM30.9999 12.5855L29.287 13.2691L26.3534 14.4437L24.9447 15L24.4044 13.6982L24.3804 14.7018L22.9716 14.7455L21.0466 14.7891L19.6859 14.8327L19.5458 13.5964L18.7494 6.55656L17.3166 6.70565L17.2246 5.29841L17.0125 2.33483L16.9204 1.07668L18.3051 0.905773C19.6899 0.734868 20.9105 0.629416 21.9911 0.58578C24.1523 0.502146 25.6531 0.651234 26.6856 1.12031C26.8257 1.18577 26.9658 1.24758 27.0858 1.33486C28.1184 1.95302 29.363 3.16754 29.4791 5.47295V5.51658V5.56022C29.4551 6.86201 28.9628 8.01471 28.0463 8.93105L29.9474 11.2546L30.9999 12.5855ZM28.6987 12.0328L25.9772 8.7056C27.2459 7.91653 27.9023 6.8511 27.9263 5.50567C27.8542 4.09843 27.2939 3.073 26.2134 2.43301C25.485 2.00757 24.0762 1.83666 21.9871 1.9203C20.9786 1.96393 19.7819 2.06938 18.4412 2.24029L18.6533 5.20386L20.0381 5.05477L20.9986 13.4582L22.9236 13.4146L23.0397 9.81103C23.4399 9.7274 23.8161 9.61831 24.1683 9.51286L25.7411 13.2255L28.6987 12.0328Z" fill="white"/>
<path d="M27.9465 5.48386C27.8744 4.07661 27.3141 3.05118 26.2336 2.41119C25.5052 1.98575 24.0964 1.81484 22.0073 1.89848C20.9988 1.94211 19.8021 2.04757 18.4614 2.21847L18.6735 5.18204L20.0583 5.03296L21.0188 13.4364L22.9438 13.3928L23.0599 9.78922C23.4601 9.70558 23.8363 9.59649 24.1885 9.49104L25.7613 13.2037L28.6949 12.0292L25.9734 8.70197C27.2661 7.91653 27.8985 6.82928 27.9465 5.48386ZM23.0159 7.18927L22.8998 4.67296C23.252 4.62933 23.5802 4.58933 23.8403 4.58933C24.2845 4.56751 24.6167 4.61115 24.8248 4.69478C25.129 4.82205 25.3411 5.12023 25.3891 5.52749C25.4131 6.22929 24.6127 6.78564 23.0159 7.18927Z" fill="#2D6A4F"/>
<path d="M14.9914 7.36261C14.9404 6.39541 14.7192 5.50573 14.3193 4.71377C13.8939 3.90496 13.2728 3.19052 12.5241 2.63783C11.7243 2.04471 10.7544 1.67063 9.67811 1.4718C8.78051 1.31341 7.85737 1.2359 6.98529 1.2359H6.93424C6.13448 1.2359 5.38576 1.27634 4.76467 1.33363C3.96491 1.39429 3.21619 1.51224 2.51852 1.65041L1.29761 1.90653L1.47202 6.01797L2.74399 5.97753L3.56928 15.7809L4.19462 15.6832L5.3177 15.5046C6.66624 15.2856 7.9382 14.9721 9.13359 14.5374C9.63132 14.3588 10.1588 14.1431 10.6565 13.9038C11.2053 13.6477 11.7286 13.3512 12.205 12.9939C12.7028 12.6367 13.1282 12.2424 13.528 11.8279C13.9279 11.3729 14.2512 10.8607 14.4767 10.3046V10.2844C14.8681 9.30038 15.0425 8.31296 14.9914 7.36261ZM12.9708 9.93395C12.7963 10.3687 12.5454 10.763 12.222 11.1202C11.8987 11.4774 11.5499 11.7908 11.15 12.0874C10.7501 12.384 10.3035 12.6199 9.85253 12.8389C9.38033 13.058 8.9294 13.2534 8.47847 13.4118C7.40644 13.7859 6.25784 14.0825 5.0114 14.2813L4.18612 4.67333L2.9652 4.71377L2.88863 2.85688C3.51397 2.71871 4.18612 2.63783 4.90931 2.56032C5.50913 2.49966 6.2068 2.48281 6.98104 2.48281C7.75527 2.48281 8.55504 2.56032 9.35055 2.70186C10.1503 2.84003 10.848 3.11637 11.4478 3.57133C12.0476 4.00606 12.5198 4.55875 12.8687 5.21254C13.2175 5.86632 13.3919 6.59762 13.443 7.40642C13.4685 8.21186 13.3196 9.06448 12.9708 9.93395ZM10.7246 7.10649C10.8225 7.521 10.8735 7.9153 10.848 8.2523C10.8225 8.60952 10.7501 8.92294 10.597 9.2195C10.4736 9.51606 10.2992 9.77218 10.0993 10.0115C9.89932 10.2474 9.67386 10.4664 9.45265 10.6652C8.90387 11.1 8.253 11.474 7.48301 11.7706L6.8364 4.67333C7.41069 4.61267 7.95947 4.63289 8.48272 4.77106C8.70818 4.83172 8.90813 4.90923 9.12934 5.02718C9.3548 5.14514 9.58027 5.2833 9.78021 5.46191C9.98015 5.64053 10.1801 5.87643 10.329 6.13255C10.4736 6.41563 10.6012 6.72905 10.7246 7.10649Z" fill="white"/>
<path d="M11.4476 3.56795C10.8478 3.13322 10.1501 2.83665 9.35035 2.69848C8.55059 2.56031 7.75508 2.49965 6.98084 2.47943C6.2066 2.47943 5.50893 2.49965 4.90911 2.55694C4.18592 2.6176 3.51377 2.71534 2.88843 2.85351L2.965 4.71039L4.18592 4.66995L5.01121 14.2779C6.25765 14.0791 7.40624 13.7825 8.47827 13.4084C8.9292 13.2298 9.4014 13.0512 9.85233 12.8355C10.3033 12.6165 10.7499 12.3604 11.1498 12.084C11.5497 11.7875 11.9241 11.4707 12.2218 11.1168C12.5452 10.7596 12.7961 10.3653 12.9706 9.93057C13.2939 9.0611 13.4683 8.21185 13.4215 7.39967C13.396 6.59087 13.196 5.8562 12.8472 5.20579C12.5196 4.55537 12.0474 4.00269 11.4476 3.56795ZM10.8478 8.25229C10.8223 8.60952 10.7499 8.92293 10.5968 9.21949C10.4734 9.51605 10.299 9.77217 10.0991 10.0114C9.89912 10.2473 9.67366 10.4664 9.45245 10.6652C8.90367 11.1 8.2528 11.474 7.48282 11.7706L6.8362 4.67332C7.4105 4.61266 7.95927 4.63288 8.48252 4.77105C8.70799 4.83171 8.90793 4.90923 9.12914 5.02718C9.3546 5.14513 9.58007 5.2833 9.78001 5.46191C9.97995 5.64052 10.1799 5.87642 10.3288 6.13254C10.5032 6.40889 10.6266 6.72567 10.7287 7.08289C10.8265 7.521 10.8733 7.89844 10.8478 8.25229Z" fill="#2D6A4F"/>
<path d="M9.17601 1.41451C8.4273 1.31678 7.70411 1.25612 6.98092 1.25612H6.92987C6.13011 1.25612 5.38139 1.29656 4.7603 1.35385C3.96053 1.41451 3.21182 1.53246 2.51415 1.67063L1.29323 1.92676L1.46765 6.03819L2.73962 5.99775L3.56491 15.8012L2.29294 16L1.44638 6.51337L0.174417 6.57403L0 1.67063L1.22092 1.41451C1.91858 1.27634 2.69282 1.15839 3.46706 1.09773C4.09241 1.03707 4.84113 1 5.63663 1H5.68768C6.55976 1 7.4829 1.07751 8.38051 1.2359C8.67829 1.27634 8.92928 1.33363 9.17601 1.41451Z" fill="#002370"/>
<path d="M40.5425 14.4833L40.8745 15.8291L40.1377 16L39.7328 14.3778H40.5182L40.5425 14.4833ZM33.8704 14.3123L33.587 13.3303L33.2794 12.2646L32.9231 11.0061L34.2996 10.6205L35.3441 10.3441L36.9352 3.09142L37.1498 2.13119L38.1943 2.00388L40.7368 1.6838L41.9231 1.53468L41.0202 1L39.834 1.14913L37.2713 1.44738L36.2267 1.57469L36.0121 2.53492L34.4211 9.78759L33.3765 10.064L32 10.4496L32.9514 14.4396L33.4251 14.3742L33.2591 15.0798L34.2793 15.1853L34.4696 14.3123H33.8704Z" fill="#001D63"/>
<path d="M46.4331 12.9884L42.3238 2.55674L41.9189 1.53104L40.7327 1.68016L38.1902 2.00024L37.1457 2.12754L36.9311 3.08777L35.34 10.3404L34.2955 10.6169L32.9189 11.0024L33.2752 12.2609L33.5829 13.3266L33.8663 14.3087H34.4615L34.2712 15.1816L35.8866 15.3307L37.8096 15.5235L39.0202 15.6508L39.4007 14.6069L39.4938 14.3523H40.5141L40.5384 14.4578L40.8704 15.8036L41.6315 15.6326L42.3441 15.4617L45.4088 14.7561L46.9999 14.3705L46.4331 12.9884ZM44.5789 13.563L41.9918 14.1814L41.7084 13.0502L38.4088 13.0065L37.9797 14.1996H37.8866L37.6963 14.1777L36.0566 14.0068L36.2712 12.9811L35.0121 12.9593L34.7044 11.8935L36.6032 11.3807L38.2671 3.78613L38.3157 3.53152L38.3643 3.31692L40.927 3.01867L45.0364 13.4503L44.5789 13.563ZM40.3279 7.69617L40.9675 10.1913L39.2347 10.6605L40.3279 7.69617Z" fill="white"/>
<path d="M38.3806 3.34604L38.332 3.56063L38.2835 3.81524L36.6195 11.4098L34.7207 11.9227L35.0284 12.9884L36.2875 13.0102L36.0729 14.0359L37.7126 14.2069L37.9029 14.2287H37.996L38.4252 13.0357L41.7248 13.0793L42.0082 14.2105L44.5952 13.5922L45.0446 13.4867L40.911 3.03323L38.3806 3.34604ZM39.2592 10.6642L40.328 7.69982L40.9677 10.195L39.2592 10.6642Z" fill="#2D6A4F"/>
<path d="M71.7606 15.6554C71.1232 15.6554 70.5084 15.5611 69.9123 15.3929C69.0762 15.1508 68.3302 14.7447 67.6478 14.1663C66.943 13.5879 66.3732 12.8412 65.9758 11.9757C65.5596 11.0855 65.3609 10.146 65.3384 9.18611C65.3159 8.2713 65.4696 7.35649 65.7771 6.4663C66.0845 5.60071 66.5231 4.78026 67.1192 4.05826C67.7116 3.33625 68.4389 2.73322 69.2749 2.27786C70.111 1.82251 70.992 1.53125 71.8918 1.4369C72.7728 1.34254 73.6501 1.41228 74.4411 1.65432C74.6173 1.70354 74.7936 1.77328 74.9923 1.84712C74.5536 1.60509 74.1112 1.41228 73.6276 1.2687C72.7691 1.02667 71.8468 0.932317 70.9245 1.05128C69.9798 1.14564 69.0537 1.46151 68.1765 1.94148C67.2954 2.42144 66.5269 3.07371 65.8895 3.82032C65.2522 4.59155 64.7911 5.43252 64.4611 6.34733C64.1537 7.26214 64 8.22207 64 9.21072C64.0225 10.2199 64.2437 11.2085 64.6823 12.148C65.121 13.0628 65.7171 13.8545 66.4406 14.4575C67.1642 15.0606 67.959 15.4913 68.8363 15.7334C69.4736 15.9262 70.111 16 70.7708 16C71.0107 16 71.2544 15.9754 71.5169 15.9508C72.3754 15.8564 73.2302 15.5898 74.0662 15.1549C73.5376 15.3477 72.9903 15.4913 72.4391 15.5405C72.2217 15.6349 71.9818 15.6554 71.7606 15.6554Z" fill="#001D63"/>
<path d="M78.3588 5.07151C77.9614 4.20593 77.3916 3.45932 76.7092 2.88089C76.1806 2.44605 75.6108 2.08505 74.9734 1.84712C74.7972 1.77328 74.621 1.70354 74.4223 1.65431C73.6088 1.41228 72.7502 1.34254 71.8729 1.43689C70.9919 1.53124 70.1146 1.8225 69.2561 2.27786C68.4201 2.73321 67.6965 3.33625 67.1004 4.05825C66.508 4.78025 66.0431 5.5966 65.7582 6.46629C65.4508 7.33187 65.3196 8.24668 65.3196 9.1861C65.3421 10.1501 65.5408 11.0649 65.9569 11.9757C66.3543 12.8412 66.9242 13.5879 67.629 14.1663C68.3113 14.7447 69.0799 15.1508 69.8934 15.3929C70.4858 15.561 71.1044 15.6554 71.7417 15.6554C71.9629 15.6554 72.2029 15.6554 72.4465 15.6308C72.9977 15.5816 73.545 15.438 74.0736 15.2452C74.4036 15.1262 74.7335 14.958 75.0634 14.7898C75.8769 14.3345 76.6043 13.7314 77.1966 13.0094C77.789 12.2874 78.2538 11.4711 78.5613 10.6014C78.8687 9.73581 78.9999 8.821 78.9999 7.88158C78.9737 6.89703 78.775 5.96171 78.3588 5.07151ZM72.3341 14.0924C71.6068 14.1663 70.9282 14.0924 70.2683 13.8996C69.6085 13.7068 69.0162 13.395 68.465 12.9356C67.9139 12.4802 67.4978 11.9264 67.1904 11.2495C66.8829 10.5768 66.7067 9.85477 66.7067 9.13277C66.6842 8.41077 66.8155 7.68877 67.0591 6.99138C67.3028 6.29399 67.6515 5.64583 68.1351 5.06741C68.6188 4.48899 69.1924 4.00902 69.8934 3.62341C70.5758 3.23779 71.2806 2.99986 72.0042 2.92602C72.7315 2.85218 73.4101 2.90141 74.0699 3.09421C74.7297 3.28702 75.3221 3.59879 75.8507 4.05825C76.3793 4.5136 76.7955 5.06741 77.1254 5.74429C77.4328 6.41706 77.609 7.13906 77.609 7.86106C77.6315 8.58307 77.5003 9.30507 77.2566 10.0025C77.0129 10.6998 76.6417 11.348 76.1581 11.9264C75.6745 12.5295 75.0821 13.0094 74.4223 13.395C73.74 13.8053 73.0351 14.0227 72.3341 14.0924ZM74.4448 8.89484C74.2461 9.13688 74.0062 9.32968 73.7625 9.44865C73.455 9.61684 73.1701 9.7153 72.8402 9.76042C72.5328 9.78504 72.2254 9.76042 71.9592 9.68658C71.6742 9.59223 71.4306 9.46916 71.1906 9.25174C70.9507 9.05893 70.7745 8.79639 70.6395 8.50512C70.5083 8.21796 70.4183 7.9267 70.4183 7.59031C70.4183 7.27854 70.4633 6.96677 70.572 6.65089C70.6807 6.36373 70.8345 6.07247 71.0556 5.80992C71.2768 5.54327 71.5168 5.32996 71.8242 5.16176C72.0641 5.0428 72.3753 4.94434 72.7465 4.8746C73.1214 4.80076 73.4738 4.84999 73.8037 4.99357C73.7175 5.01818 73.5825 5.01818 73.4288 5.01818C73.2751 5.01818 73.0764 5.06741 72.8777 5.18638C72.4615 5.42841 72.2179 5.74018 72.1729 6.1258C72.1054 6.51141 72.1729 6.87241 72.3491 7.18419C72.5478 7.59442 72.8327 7.83235 73.1626 7.9308C73.4925 8.02516 73.8225 8.00464 74.1299 7.85696C74.4148 7.71338 74.636 7.47135 74.7672 7.13496C74.8984 6.82319 74.9884 6.50731 75.0109 6.19554C75.1196 6.53192 75.1871 6.8437 75.1646 7.15957C75.1421 7.47135 75.0784 7.78722 74.9659 8.07438C74.7935 8.41487 74.6398 8.67742 74.4448 8.89484Z" fill="white"/>
<path d="M77.1254 5.7689C76.818 5.09613 76.3981 4.54232 75.8508 4.08286C75.3221 3.62751 74.7298 3.31163 74.0699 3.11883C73.4101 2.92602 72.7278 2.87679 72.0042 2.95063C71.2769 3.02447 70.5758 3.26241 69.8935 3.64802C69.2112 4.03364 68.6188 4.5136 68.1352 5.09202C67.6515 5.67045 67.2991 6.31861 67.0592 7.01599C66.8193 7.71338 66.7068 8.43538 66.7068 9.15739C66.7293 9.87939 66.883 10.6014 67.1904 11.2742C67.4978 11.9469 67.9365 12.5007 68.4651 12.9602C69.0162 13.4156 69.6086 13.7314 70.2684 13.9242C70.9282 14.117 71.6106 14.1663 72.3341 14.117C73.0614 14.0432 73.74 13.8299 74.4449 13.4443C75.1272 13.0587 75.697 12.5787 76.1807 11.9757C76.6643 11.3726 77.0392 10.7491 77.2791 10.0517C77.5191 9.35429 77.6316 8.63229 77.6316 7.91029C77.5866 7.13906 77.4329 6.44167 77.1254 5.7689ZM71.9367 9.7153C71.6518 9.62094 71.4081 9.49788 71.1682 9.28045C70.9245 9.08765 70.752 8.8251 70.6171 8.53384C70.4858 8.24668 70.3959 7.95542 70.3959 7.61903C70.3959 7.30726 70.4409 6.99138 70.5496 6.67961C70.6583 6.39245 70.812 6.10119 71.0332 5.83864C71.2544 5.57609 71.4943 5.35867 71.8018 5.19048C72.0455 5.07151 72.3529 4.97306 72.724 4.90332C73.0989 4.82948 73.4514 4.87871 73.7813 5.02229C73.695 5.0469 73.5601 5.0469 73.4064 5.0469C73.2527 5.0469 73.0539 5.09613 72.8552 5.21509C72.4391 5.45713 72.1954 5.7689 72.1504 6.15451C72.0829 6.54013 72.1504 6.90113 72.3266 7.2129C72.5253 7.62313 72.8103 7.86106 73.1402 7.95952C73.4701 8.05387 73.8 8.03336 74.1074 7.88568C74.3924 7.7421 74.6136 7.50006 74.7448 7.16368C74.876 6.8519 74.966 6.53603 74.9885 6.22425C75.0972 6.56064 75.1647 6.87241 75.1422 7.18829C75.1197 7.50006 75.0559 7.81184 74.9435 8.1031C74.8348 8.39026 74.6585 8.65691 74.4598 8.89894C74.2611 9.14098 74.0212 9.33378 73.7775 9.45275C73.4701 9.62094 73.1852 9.7194 72.8552 9.76452C72.5291 9.80965 72.2217 9.78504 71.9367 9.7153Z" fill="#2D6A4F"/>
<path d="M82.3099 13.3418L82.3383 14.4367L81.2827 13.731L81.2543 12.6361L81.0887 6.41772L80.2272 5.84177L80.1704 4.72785L80.0852 3.41139L80 2.18671H81.8034L85.6895 2.16772H86.8539L87.3556 2.50316L87.384 1.72468L88.8277 1.55696L91.8523 1.22152L93.9066 1L94.9621 1.7057L92.9079 1.92721L89.8832 2.26266L88.4396 2.43038L88.4159 3.41139L88.3875 3.67089L88.3591 3.56013L87.9189 2.83861H86.7498L82.8637 2.8576H81.0603L81.1455 4.08228L81.2307 5.39873L81.3159 6.51266H82.1773L82.3099 13.3418ZM87.9189 14.6424L86.8918 14.6044L87.3083 15.2911L88.4206 15.4589L88.0609 14.8291L87.9189 14.6424Z" fill="#001D63"/>
<path d="M92.9191 1.90821L89.8945 2.24366L88.4508 2.41138L88.4224 3.39556L88.394 3.65505L88.3656 3.56328L87.9206 2.83859H86.7515L82.8654 2.85758H81.062L81.1472 4.08227L81.2324 5.39872L81.3176 6.51264H82.1791L82.3448 13.3069L82.3732 14.4019L83.9825 14.4588L86.8698 14.5696H86.9266L87.9538 14.6076L88.0626 14.7943L88.4224 15.424L89.4211 15.5158L92.6398 15.8133L94.5852 16L94.6136 14.6645L94.9449 3.06328L95.0017 1.65189L92.9191 1.90821ZM92.8623 14.6804L89.6436 14.3829L86.671 9.35125L86.9219 13.4177L84.0346 13.3069L83.8405 5.36391H82.9506L82.8654 4.04745L86.7515 4.02847L89.9181 9.11391L90.169 3.41454L93.1936 3.0791L92.8623 14.6804Z" fill="white"/>
<path d="M89.9165 9.11075L86.7499 4.0253L82.8638 4.04429L82.949 5.36075H83.8388L84.0329 13.3228L86.9487 13.4177L86.6694 9.35125L89.6372 14.3829L92.8606 14.6804L93.1919 3.0791L90.1673 3.41138L89.9165 9.11075Z" fill="#2D6A4F"/>
<path d="M57.7205 15.8088L57.0356 16L56.9518 15.0692C56.3761 15.1738 55.8186 15.2604 55.2648 15.2604C55.181 15.2604 55.0936 15.2604 54.9879 15.2604C54.5835 15.2604 54.1535 15.2388 53.7272 15.1774C53.1734 15.0945 52.616 14.9429 52.1022 14.7121C51.5666 14.4776 51.0565 14.1817 50.5428 13.7813C50.0072 13.3808 49.5372 12.8288 49.1546 12.1939C48.6409 11.3894 48.2984 10.5452 48.1272 9.71901C47.9778 8.91449 47.9559 8.10997 48.0834 7.34875C48.211 6.58753 48.4478 5.86599 48.7903 5.213C49.1109 4.57804 49.5153 4.00803 49.9671 3.49934C50.4153 2.99066 50.9072 2.56855 51.399 2.22943C51.9346 1.86866 52.4666 1.59448 53.0022 1.44656C54.2847 1.06415 55.4798 0.916233 56.5291 1.04611C57.2141 1.12909 57.8335 1.25896 58.3873 1.42852C58.023 1.34555 57.6404 1.28061 57.2323 1.21567C56.2048 1.0894 55.0316 1.23732 53.7928 1.61612C53.2791 1.76404 52.7471 2.01658 52.2334 2.37735C51.7415 2.71647 51.2715 3.13857 50.8234 3.62561C50.3971 4.11265 50.0109 4.68266 49.6902 5.29597C49.3477 5.93093 49.1145 6.63082 49.0052 7.3704C48.8777 8.10997 48.8996 8.89284 49.049 9.69736C49.1983 10.5019 49.5408 11.328 50.0327 12.1109C50.4189 12.7459 50.8889 13.2545 51.399 13.655C51.8909 14.0374 52.4046 14.3332 52.9147 14.5425C53.4285 14.7553 53.9604 14.9033 54.5179 14.9862C54.9223 15.0512 55.3523 15.0692 55.7348 15.0692C55.8186 15.0692 55.9061 15.0692 55.9899 15.0692C56.5255 15.0476 57.0793 14.9862 57.6367 14.878L57.7205 15.8088Z" fill="#002370"/>
<path d="M62.9999 4.37963L61.9542 3.34423C61.3348 2.73092 60.6061 2.24388 59.7973 1.86146C59.3928 1.67026 58.9192 1.52234 58.4091 1.41772C58.0447 1.33474 57.6622 1.2698 57.2541 1.20486C56.2266 1.07859 55.0534 1.22651 53.8146 1.60532C53.3009 1.75323 52.7689 2.00577 52.2552 2.36654C51.7633 2.70566 51.2933 3.12776 50.8451 3.6148C50.4189 4.10184 50.0326 4.67186 49.712 5.28517C49.3695 5.92012 49.1363 6.62001 49.027 7.35959C48.8995 8.09917 48.9214 8.88204 49.0708 9.68655C49.2201 10.4911 49.5626 11.3172 50.0545 12.1001C50.4407 12.7351 50.9107 13.2437 51.4208 13.6442C51.9127 14.0266 52.4264 14.3224 52.9365 14.5317C53.4503 14.7445 53.9822 14.8925 54.5397 14.9754C54.9441 15.0404 55.374 15.0584 55.7566 15.0584C55.8404 15.0584 55.9279 15.0584 56.0117 15.0584C56.5473 15.0368 57.1011 14.9754 57.6585 14.8672L57.7423 15.7547L58.5767 15.5418L61.8887 14.694L62.8724 6.1438L60.8867 6.1005L62.9999 4.37963ZM55.9461 13.756C55.5416 13.7777 55.1117 13.756 54.6854 13.6911C54.2591 13.6262 53.8292 13.4999 53.4248 13.3303C53.0203 13.1608 52.6123 12.9082 52.2078 12.6124C51.8216 12.3166 51.4609 11.9125 51.1621 11.4074C50.7358 10.7508 50.4772 10.0942 50.3496 9.45927C50.2221 8.80267 50.2221 8.18936 50.3059 7.5977C50.4116 7.00604 50.5828 6.43241 50.8597 5.92733C51.1366 5.397 51.4573 4.93161 51.8216 4.53116C52.186 4.1307 52.5685 3.76993 52.9766 3.49575C53.381 3.22156 53.7673 3.03036 54.1535 2.90409C55.2429 2.56497 56.2266 2.46034 57.061 2.54332C57.8954 2.64794 58.6204 2.8175 59.218 3.09169C59.9029 3.38752 60.4786 3.79158 60.9924 4.29666L58.8354 6.0969C58.3217 5.82271 57.7678 5.65315 57.1484 5.6315C56.529 5.58821 55.9534 5.65315 55.3959 5.82271C54.8421 5.99227 54.3684 6.26646 53.9859 6.62723C53.5997 6.988 53.3883 7.45339 53.3446 8.00176C53.3227 8.38417 53.3446 8.71969 53.4284 8.99748C53.5122 9.29331 53.6434 9.54585 53.8146 9.75871C53.9859 9.97156 54.179 10.1592 54.4122 10.289C54.6453 10.437 54.8822 10.5235 55.1372 10.5849C55.4578 10.6678 55.7785 10.6678 56.0991 10.5632C56.4197 10.4586 56.6966 10.3504 56.9335 10.1808C57.2104 10.0112 57.4873 9.79839 57.7241 9.54585L55.8222 9.22837L56.0991 7.4101L61.2911 7.49307L60.5843 13.6731L58.8755 14.1168L58.7917 13.186C57.848 13.5432 56.8861 13.7344 55.9461 13.756Z" fill="white"/>
<path d="M55.8624 9.22476L57.7643 9.54224C57.5093 9.79478 57.2506 10.0076 56.9737 10.1772C56.7368 10.3251 56.4599 10.4514 56.1393 10.5596C55.8187 10.6642 55.4981 10.6642 55.1774 10.5813C54.9224 10.5163 54.6855 10.4333 54.4524 10.2854C54.2155 10.1375 54.0261 9.96795 53.8548 9.7551C53.6836 9.54224 53.5561 9.2897 53.4686 8.99387C53.3848 8.69804 53.3629 8.35892 53.3848 7.99815C53.4285 7.44617 53.6399 7.00243 54.0261 6.62362C54.4123 6.26285 54.8823 5.98866 55.4361 5.8191C55.9899 5.64954 56.5692 5.5846 57.1886 5.62789C57.808 5.67119 58.3655 5.8191 58.8756 6.09328L61.0326 4.29305C60.5188 3.78436 59.9431 3.38391 59.2582 3.08808C58.6606 2.83554 57.9538 2.64433 57.1012 2.5397C56.2668 2.43508 55.2831 2.56135 54.1937 2.90047C53.8075 3.0051 53.4249 3.19631 53.0168 3.49214C52.6124 3.76632 52.2262 4.10545 51.8618 4.52755C51.4975 4.928 51.1768 5.39339 50.8999 5.92372C50.623 6.45405 50.4299 7.00243 50.3461 7.59409C50.2405 8.18575 50.2623 8.8207 50.3898 9.45566C50.5174 10.1123 50.776 10.7472 51.2023 11.4038C51.5011 11.9125 51.8655 12.313 52.248 12.6088C52.6342 12.9046 53.0387 13.1608 53.465 13.3267C53.8694 13.4963 54.2993 13.6225 54.7256 13.6875C55.1519 13.7524 55.5819 13.7705 55.9863 13.7524C56.9263 13.7308 57.8882 13.5179 58.8719 13.1608L58.9558 14.0915L60.6646 13.6478L61.3714 7.46782L56.1794 7.38484L55.8624 9.22476Z" fill="#2D6A4F"/>
</svg>
