<svg width="199" height="51" viewBox="0 0 199 51" fill="none" xmlns="http://www.w3.org/2000/svg">
<path d="M122.522 48.5673L122.662 49.8036L121.769 49.2691L121.629 48.0328L120.901 41.6147L121.721 41.5311L122.522 48.5673ZM127.356 49.6982L127.945 49.9964L127.404 48.6946L127.356 49.6982ZM119.985 37.3057L119.892 36.0476L121.277 35.8767C122.662 35.7058 123.883 35.6003 124.963 35.5567C127.124 35.473 128.625 35.6221 129.658 36.0912C129.494 35.9639 129.33 35.8549 129.165 35.7494C128.157 35.153 126.536 34.9167 124.071 35.0258C123.014 35.0694 121.769 35.1749 120.385 35.3458L119 35.5167L119.092 36.7748L119.304 39.7384L119.396 41.1456L120.289 41.6802L120.197 40.2729L119.985 37.3057Z" fill="#001D63"/>
<path d="M128.389 40.5057C128.413 41.2111 127.613 41.7638 126.02 42.1893L125.904 39.673C126.256 39.6293 126.584 39.5893 126.844 39.5893C127.288 39.5675 127.621 39.6111 127.829 39.6948C128.153 39.8221 128.341 40.102 128.389 40.5057ZM134 47.5855L132.287 48.2691L129.353 49.4437L127.945 50L127.404 48.6982L127.38 49.7018L125.972 49.7455L124.047 49.7891L122.686 49.8327L122.546 48.5964L121.749 41.5566L120.317 41.7056L120.225 40.2984L120.012 37.3348L119.92 36.0767L121.305 35.9058C122.69 35.7349 123.911 35.6294 124.991 35.5858C127.152 35.5021 128.653 35.6512 129.686 36.1203C129.826 36.1858 129.966 36.2476 130.086 36.3349C131.118 36.953 132.363 38.1675 132.479 40.4729V40.5166V40.5602C132.455 41.862 131.963 43.0147 131.046 43.9311L132.947 46.2546L134 47.5855ZM131.699 47.0328L128.977 43.7056C130.246 42.9165 130.902 41.8511 130.926 40.5057C130.854 39.0984 130.294 38.073 129.213 37.433C128.485 37.0076 127.076 36.8367 124.987 36.9203C123.979 36.9639 122.782 37.0694 121.441 37.2403L121.653 40.2039L123.038 40.0548L123.999 48.4582L125.924 48.4146L126.04 44.811C126.44 44.7274 126.816 44.6183 127.168 44.5129L128.741 48.2255L131.699 47.0328Z" fill="white"/>
<path d="M130.946 40.4839C130.874 39.0766 130.314 38.0512 129.234 37.4112C128.505 36.9857 127.096 36.8148 125.007 36.8985C123.999 36.9421 122.802 37.0476 121.461 37.2185L121.674 40.182L123.058 40.033L124.019 48.4364L125.944 48.3928L126.06 44.7892C126.46 44.7056 126.836 44.5965 127.188 44.491L128.761 48.2037L131.695 47.0292L128.973 43.702C130.266 42.9165 130.898 41.8293 130.946 40.4839ZM126.016 42.1893L125.9 39.673C126.252 39.6293 126.58 39.5893 126.84 39.5893C127.285 39.5675 127.617 39.6111 127.825 39.6948C128.129 39.8221 128.341 40.1202 128.389 40.5275C128.413 41.2293 127.613 41.7856 126.016 42.1893Z" fill="#2D6A4F"/>
<path d="M117.991 42.3626C117.94 41.3954 117.719 40.5057 117.319 39.7138C116.894 38.905 116.273 38.1905 115.524 37.6378C114.724 37.0447 113.754 36.6706 112.678 36.4718C111.781 36.3134 110.857 36.2359 109.985 36.2359H109.934C109.134 36.2359 108.386 36.2763 107.765 36.3336C106.965 36.3943 106.216 36.5122 105.519 36.6504L104.298 36.9065L104.472 41.018L105.744 40.9775L106.569 50.7809L107.195 50.6832L108.318 50.5046C109.666 50.2856 110.938 49.9721 112.134 49.5374C112.631 49.3588 113.159 49.1431 113.657 48.9038C114.205 48.6477 114.729 48.3512 115.205 47.9939C115.703 47.6367 116.128 47.2424 116.528 46.8279C116.928 46.3729 117.251 45.8607 117.477 45.3046V45.2844C117.868 44.3004 118.042 43.313 117.991 42.3626ZM115.971 44.9339C115.796 45.3687 115.545 45.763 115.222 46.1202C114.899 46.4774 114.55 46.7908 114.15 47.0874C113.75 47.384 113.303 47.6199 112.853 47.8389C112.38 48.058 111.929 48.2534 111.478 48.4118C110.406 48.7859 109.258 49.0825 108.011 49.2813L107.186 39.6733L105.965 39.7138L105.889 37.8569C106.514 37.7187 107.186 37.6378 107.909 37.5603C108.509 37.4997 109.207 37.4828 109.981 37.4828C110.755 37.4828 111.555 37.5603 112.351 37.7019C113.15 37.84 113.848 38.1164 114.448 38.5713C115.048 39.0061 115.52 39.5587 115.869 40.2125C116.217 40.8663 116.392 41.5976 116.443 42.4064C116.468 43.2119 116.32 44.0645 115.971 44.9339ZM113.725 42.1065C113.822 42.521 113.874 42.9153 113.848 43.2523C113.822 43.6095 113.75 43.9229 113.597 44.2195C113.474 44.5161 113.299 44.7722 113.099 45.0115C112.899 45.2474 112.674 45.4664 112.453 45.6652C111.904 46.1 111.253 46.474 110.483 46.7706L109.836 39.6733C110.411 39.6127 110.959 39.6329 111.483 39.7711C111.708 39.8317 111.908 39.9092 112.129 40.0272C112.355 40.1451 112.58 40.2833 112.78 40.4619C112.98 40.6405 113.18 40.8764 113.329 41.1326C113.474 41.4156 113.601 41.729 113.725 42.1065Z" fill="white"/>
<path d="M114.448 38.568C113.848 38.1332 113.15 37.8367 112.35 37.6985C111.551 37.5603 110.755 37.4997 109.981 37.4794C109.207 37.4794 108.509 37.4997 107.909 37.5569C107.186 37.6176 106.514 37.7153 105.888 37.8535L105.965 39.7104L107.186 39.67L108.011 49.2779C109.258 49.0791 110.406 48.7825 111.478 48.4084C111.929 48.2298 112.401 48.0512 112.852 47.8355C113.303 47.6165 113.75 47.3604 114.15 47.084C114.55 46.7875 114.924 46.4707 115.222 46.1168C115.545 45.7596 115.796 45.3653 115.971 44.9306C116.294 44.0611 116.468 43.2119 116.421 42.3997C116.396 41.5909 116.196 40.8562 115.847 40.2058C115.52 39.5554 115.047 39.0027 114.448 38.568ZM113.848 43.2523C113.822 43.6095 113.75 43.9229 113.597 44.2195C113.473 44.5161 113.299 44.7722 113.099 45.0114C112.899 45.2473 112.674 45.4664 112.452 45.6652C111.904 46.1 111.253 46.474 110.483 46.7706L109.836 39.6733C110.41 39.6127 110.959 39.6329 111.483 39.7711C111.708 39.8317 111.908 39.9092 112.129 40.0272C112.355 40.1451 112.58 40.2833 112.78 40.4619C112.98 40.6405 113.18 40.8764 113.329 41.1325C113.503 41.4089 113.627 41.7257 113.729 42.0829C113.827 42.521 113.873 42.8984 113.848 43.2523Z" fill="#2D6A4F"/>
<path d="M112.176 36.4145C111.427 36.3168 110.704 36.2561 109.981 36.2561H109.93C109.13 36.2561 108.381 36.2966 107.76 36.3539C106.961 36.4145 106.212 36.5325 105.514 36.6706L104.293 36.9268L104.468 41.0382L105.74 40.9978L106.565 50.8012L105.293 51L104.446 41.5134L103.174 41.574L103 36.6706L104.221 36.4145C104.919 36.2763 105.693 36.1584 106.467 36.0977C107.092 36.0371 107.841 36 108.637 36H108.688C109.56 36 110.483 36.0775 111.381 36.2359C111.678 36.2763 111.929 36.3336 112.176 36.4145Z" fill="#002370"/>
<path d="M143.543 49.4833L143.874 50.8291L143.138 51L142.733 49.3778H143.518L143.543 49.4833ZM136.87 49.3123L136.587 48.3303L136.279 47.2646L135.923 46.0061L137.3 45.6205L138.344 45.3441L139.935 38.0914L140.15 37.1312L141.194 37.0039L143.737 36.6838L144.923 36.5347L144.02 36L142.834 36.1491L140.271 36.4474L139.227 36.5747L139.012 37.5349L137.421 44.7876L136.377 45.064L135 45.4496L135.951 49.4396L136.425 49.3742L136.259 50.0798L137.279 50.1853L137.47 49.3123H136.87Z" fill="#001D63"/>
<path d="M149.433 47.9884L145.324 37.5567L144.919 36.531L143.733 36.6802L141.19 37.0002L140.146 37.1275L139.931 38.0878L138.34 45.3404L137.295 45.6169L135.919 46.0024L136.275 47.2609L136.583 48.3266L136.866 49.3087H137.461L137.271 50.1816L138.887 50.3307L140.81 50.5235L142.02 50.6508L142.401 49.6069L142.494 49.3523H143.514L143.538 49.4578L143.87 50.8036L144.631 50.6326L145.344 50.4617L148.409 49.7561L150 49.3705L149.433 47.9884ZM147.579 48.563L144.992 49.1814L144.708 48.0502L141.409 48.0065L140.98 49.1996H140.887L140.696 49.1777L139.057 49.0068L139.271 47.9811L138.012 47.9593L137.704 46.8935L139.603 46.3807L141.267 38.7861L141.316 38.5315L141.364 38.3169L143.927 38.0187L148.036 48.4503L147.579 48.563ZM143.328 42.6962L143.968 45.1913L142.235 45.6605L143.328 42.6962Z" fill="white"/>
<path d="M141.381 38.346L141.332 38.5606L141.283 38.8152L139.619 46.4098L137.721 46.9227L138.028 47.9884L139.288 48.0102L139.073 49.0359L140.713 49.2069L140.903 49.2287H140.996L141.425 48.0357L144.725 48.0793L145.008 49.2105L147.595 48.5922L148.045 48.4867L143.911 38.0332L141.381 38.346ZM142.259 45.6642L143.328 42.6998L143.968 45.195L142.259 45.6642Z" fill="#2D6A4F"/>
<path d="M174.761 50.6554C174.123 50.6554 173.508 50.5611 172.912 50.3929C172.076 50.1508 171.33 49.7447 170.648 49.1663C169.943 48.5879 169.373 47.8412 168.976 46.9757C168.56 46.0855 168.361 45.146 168.338 44.1861C168.316 43.2713 168.47 42.3565 168.777 41.4663C169.084 40.6007 169.523 39.7803 170.119 39.0583C170.712 38.3363 171.439 37.7332 172.275 37.2779C173.111 36.8225 173.992 36.5312 174.892 36.4369C175.773 36.3425 176.65 36.4123 177.441 36.6543C177.617 36.7035 177.794 36.7733 177.992 36.8471C177.554 36.6051 177.111 36.4123 176.628 36.2687C175.769 36.0267 174.847 35.9323 173.925 36.0513C172.98 36.1456 172.054 36.4615 171.176 36.9415C170.295 37.4214 169.527 38.0737 168.89 38.8203C168.252 39.5916 167.791 40.4325 167.461 41.3473C167.154 42.2621 167 43.2221 167 44.2107C167.022 45.2199 167.244 46.2085 167.682 47.148C168.121 48.0628 168.717 48.8545 169.441 49.4575C170.164 50.0606 170.959 50.4913 171.836 50.7334C172.474 50.9262 173.111 51 173.771 51C174.011 51 174.254 50.9754 174.517 50.9508C175.375 50.8564 176.23 50.5898 177.066 50.1549C176.538 50.3477 175.99 50.4913 175.439 50.5405C175.222 50.6349 174.982 50.6554 174.761 50.6554Z" fill="#001D63"/>
<path d="M181.359 40.0715C180.961 39.2059 180.392 38.4593 179.709 37.8809C179.181 37.4461 178.611 37.0851 177.973 36.8471C177.797 36.7733 177.621 36.7035 177.422 36.6543C176.609 36.4123 175.75 36.3425 174.873 36.4369C173.992 36.5312 173.115 36.8225 172.256 37.2779C171.42 37.7332 170.696 38.3362 170.1 39.0582C169.508 39.7803 169.043 40.5966 168.758 41.4663C168.451 42.3319 168.32 43.2467 168.32 44.1861C168.342 45.1501 168.541 46.0649 168.957 46.9757C169.354 47.8412 169.924 48.5879 170.629 49.1663C171.311 49.7447 172.08 50.1508 172.893 50.3929C173.486 50.561 174.104 50.6554 174.742 50.6554C174.963 50.6554 175.203 50.6554 175.447 50.6308C175.998 50.5816 176.545 50.438 177.074 50.2452C177.404 50.1262 177.733 49.958 178.063 49.7898C178.877 49.3345 179.604 48.7314 180.197 48.0094C180.789 47.2874 181.254 46.4711 181.561 45.6014C181.869 44.7358 182 43.821 182 42.8816C181.974 41.897 181.775 40.9617 181.359 40.0715ZM175.334 49.0924C174.607 49.1663 173.928 49.0924 173.268 48.8996C172.609 48.7068 172.016 48.395 171.465 47.9356C170.914 47.4802 170.498 46.9264 170.19 46.2495C169.883 45.5768 169.707 44.8548 169.707 44.1328C169.684 43.4108 169.815 42.6888 170.059 41.9914C170.303 41.294 170.651 40.6458 171.135 40.0674C171.619 39.489 172.192 39.009 172.893 38.6234C173.576 38.2378 174.281 37.9999 175.004 37.926C175.731 37.8522 176.41 37.9014 177.07 38.0942C177.73 38.287 178.322 38.5988 178.851 39.0582C179.379 39.5136 179.795 40.0674 180.125 40.7443C180.433 41.4171 180.609 42.1391 180.609 42.8611C180.632 43.5831 180.5 44.3051 180.257 45.0025C180.013 45.6998 179.642 46.348 179.158 46.9264C178.674 47.5295 178.082 48.0094 177.422 48.395C176.74 48.8053 176.035 49.0227 175.334 49.0924ZM177.445 43.8948C177.246 44.1369 177.006 44.3297 176.762 44.4486C176.455 44.6168 176.17 44.7153 175.84 44.7604C175.533 44.785 175.225 44.7604 174.959 44.6866C174.674 44.5922 174.431 44.4692 174.191 44.2517C173.951 44.0589 173.774 43.7964 173.64 43.5051C173.508 43.218 173.418 42.9267 173.418 42.5903C173.418 42.2785 173.463 41.9668 173.572 41.6509C173.681 41.3637 173.834 41.0725 174.056 40.8099C174.277 40.5433 174.517 40.33 174.824 40.1618C175.064 40.0428 175.375 39.9443 175.746 39.8746C176.121 39.8008 176.474 39.85 176.804 39.9936C176.717 40.0182 176.583 40.0182 176.429 40.0182C176.275 40.0182 176.076 40.0674 175.878 40.1864C175.462 40.4284 175.218 40.7402 175.173 41.1258C175.105 41.5114 175.173 41.8724 175.349 42.1842C175.548 42.5944 175.833 42.8323 176.163 42.9308C176.493 43.0252 176.822 43.0046 177.13 42.857C177.415 42.7134 177.636 42.4713 177.767 42.135C177.898 41.8232 177.988 41.5073 178.011 41.1955C178.12 41.5319 178.187 41.8437 178.165 42.1596C178.142 42.4713 178.078 42.7872 177.966 43.0744C177.793 43.4149 177.64 43.6774 177.445 43.8948Z" fill="white"/>
<path d="M180.125 40.7689C179.818 40.0961 179.398 39.5423 178.851 39.0829C178.322 38.6275 177.73 38.3116 177.07 38.1188C176.41 37.926 175.728 37.8768 175.004 37.9506C174.277 38.0245 173.576 38.2624 172.893 38.648C172.211 39.0336 171.619 39.5136 171.135 40.092C170.652 40.6704 170.299 41.3186 170.059 42.016C169.819 42.7134 169.707 43.4354 169.707 44.1574C169.729 44.8794 169.883 45.6014 170.19 46.2742C170.498 46.9469 170.936 47.5007 171.465 47.9602C172.016 48.4156 172.609 48.7314 173.268 48.9242C173.928 49.117 174.611 49.1663 175.334 49.117C176.061 49.0432 176.74 48.8299 177.445 48.4443C178.127 48.0587 178.697 47.5787 179.181 46.9757C179.664 46.3726 180.039 45.7491 180.279 45.0517C180.519 44.3543 180.632 43.6323 180.632 42.9103C180.587 42.1391 180.433 41.4417 180.125 40.7689ZM174.937 44.7153C174.652 44.6209 174.408 44.4979 174.168 44.2805C173.924 44.0876 173.752 43.8251 173.617 43.5338C173.486 43.2467 173.396 42.9554 173.396 42.619C173.396 42.3073 173.441 41.9914 173.55 41.6796C173.658 41.3924 173.812 41.1012 174.033 40.8386C174.254 40.5761 174.494 40.3587 174.802 40.1905C175.045 40.0715 175.353 39.9731 175.724 39.9033C176.099 39.8295 176.451 39.8787 176.781 40.0223C176.695 40.0469 176.56 40.0469 176.406 40.0469C176.253 40.0469 176.054 40.0961 175.855 40.2151C175.439 40.4571 175.195 40.7689 175.15 41.1545C175.083 41.5401 175.15 41.9011 175.327 42.2129C175.525 42.6231 175.81 42.8611 176.14 42.9595C176.47 43.0539 176.8 43.0334 177.107 42.8857C177.392 42.7421 177.614 42.5001 177.745 42.1637C177.876 41.8519 177.966 41.536 177.988 41.2243C178.097 41.5606 178.165 41.8724 178.142 42.1883C178.12 42.5001 178.056 42.8118 177.943 43.1031C177.835 43.3903 177.659 43.6569 177.46 43.8989C177.261 44.141 177.021 44.3338 176.778 44.4528C176.47 44.6209 176.185 44.7194 175.855 44.7645C175.529 44.8096 175.222 44.785 174.937 44.7153Z" fill="#2D6A4F"/>
<path d="M185.31 48.3418L185.338 49.4367L184.283 48.731L184.254 47.6361L184.089 41.4177L183.227 40.8418L183.17 39.7278L183.085 38.4114L183 37.1867H184.803L188.689 37.1677H189.854L190.356 37.5032L190.384 36.7247L191.828 36.557L194.852 36.2215L196.907 36L197.962 36.7057L195.908 36.9272L192.883 37.2627L191.44 37.4304L191.416 38.4114L191.388 38.6709L191.359 38.5601L190.919 37.8386H189.75L185.864 37.8576H184.06L184.145 39.0823L184.231 40.3987L184.316 41.5127H185.177L185.31 48.3418ZM190.919 49.6424L189.892 49.6044L190.308 50.2911L191.421 50.4589L191.061 49.8291L190.919 49.6424Z" fill="#001D63"/>
<path d="M195.919 36.9082L192.894 37.2437L191.451 37.4114L191.422 38.3956L191.394 38.6551L191.366 38.5633L190.921 37.8386H189.752L185.865 37.8576H184.062L184.147 39.0823L184.232 40.3987L184.318 41.5126H185.179L185.345 48.3069L185.373 49.4019L186.982 49.4588L189.87 49.5696H189.927L190.954 49.6076L191.063 49.7943L191.422 50.424L192.421 50.5158L195.64 50.8133L197.585 51L197.614 49.6645L197.945 38.0633L198.002 36.6519L195.919 36.9082ZM195.862 49.6804L192.644 49.3829L189.671 44.3513L189.922 48.4177L187.035 48.3069L186.84 40.3639H185.951L185.865 39.0475L189.752 39.0285L192.918 44.1139L193.169 38.4145L196.194 38.0791L195.862 49.6804Z" fill="white"/>
<path d="M192.916 44.1107L189.75 39.0253L185.864 39.0443L185.949 40.3607H186.839L187.033 48.3228L189.949 48.4177L189.669 44.3513L192.637 49.3829L195.861 49.6804L196.192 38.0791L193.167 38.4114L192.916 44.1107Z" fill="#2D6A4F"/>
<path d="M160.721 50.8088L160.036 51L159.952 50.0692C159.376 50.1738 158.819 50.2604 158.265 50.2604C158.181 50.2604 158.094 50.2604 157.988 50.2604C157.583 50.2604 157.154 50.2388 156.727 50.1774C156.173 50.0945 155.616 49.9429 155.102 49.7121C154.567 49.4776 154.057 49.1817 153.543 48.7813C153.007 48.3808 152.537 47.8288 152.155 47.1939C151.641 46.3894 151.298 45.5452 151.127 44.719C150.978 43.9145 150.956 43.11 151.083 42.3488C151.211 41.5875 151.448 40.866 151.79 40.213C152.111 39.578 152.515 39.008 152.967 38.4993C153.415 37.9907 153.907 37.5686 154.399 37.2294C154.935 36.8687 155.467 36.5945 156.002 36.4466C157.285 36.0641 158.48 35.9162 159.529 36.0461C160.214 36.1291 160.833 36.259 161.387 36.4285C161.023 36.3455 160.64 36.2806 160.232 36.2157C159.205 36.0894 158.032 36.2373 156.793 36.6161C156.279 36.764 155.747 37.0166 155.233 37.3773C154.742 37.7165 154.272 38.1386 153.823 38.6256C153.397 39.1127 153.011 39.6827 152.69 40.296C152.348 40.9309 152.115 41.6308 152.005 42.3704C151.878 43.11 151.9 43.8928 152.049 44.6974C152.198 45.5019 152.541 46.328 153.033 47.1109C153.419 47.7459 153.889 48.2545 154.399 48.655C154.891 49.0374 155.405 49.3332 155.915 49.5425C156.428 49.7553 156.96 49.9033 157.518 49.9862C157.922 50.0512 158.352 50.0692 158.735 50.0692C158.819 50.0692 158.906 50.0692 158.99 50.0692C159.525 50.0476 160.079 49.9862 160.637 49.878L160.721 50.8088Z" fill="#002370"/>
<path d="M166 39.3796L164.954 38.3442C164.335 37.7309 163.606 37.2439 162.797 36.8615C162.393 36.6703 161.919 36.5223 161.409 36.4177C161.045 36.3347 160.662 36.2698 160.254 36.2049C159.227 36.0786 158.053 36.2265 156.815 36.6053C156.301 36.7532 155.769 37.0058 155.255 37.3665C154.763 37.7057 154.293 38.1278 153.845 38.6148C153.419 39.1018 153.033 39.6719 152.712 40.2852C152.37 40.9201 152.136 41.62 152.027 42.3596C151.9 43.0992 151.921 43.882 152.071 44.6866C152.22 45.4911 152.563 46.3172 153.055 47.1001C153.441 47.7351 153.911 48.2437 154.421 48.6442C154.913 49.0266 155.426 49.3224 155.937 49.5317C156.45 49.7445 156.982 49.8925 157.54 49.9754C157.944 50.0404 158.374 50.0584 158.757 50.0584C158.84 50.0584 158.928 50.0584 159.012 50.0584C159.547 50.0368 160.101 49.9754 160.659 49.8672L160.742 50.7547L161.577 50.5418L164.889 49.694L165.872 41.1438L163.887 41.1005L166 39.3796ZM158.946 48.756C158.542 48.7777 158.112 48.756 157.685 48.6911C157.259 48.6262 156.829 48.4999 156.425 48.3303C156.02 48.1608 155.612 47.9082 155.208 47.6124C154.822 47.3166 154.461 46.9125 154.162 46.4074C153.736 45.7508 153.477 45.0942 153.35 44.4593C153.222 43.8027 153.222 43.1894 153.306 42.5977C153.412 42.006 153.583 41.4324 153.86 40.9273C154.137 40.397 154.457 39.9316 154.822 39.5312C155.186 39.1307 155.569 38.7699 155.977 38.4957C156.381 38.2216 156.767 38.0304 157.153 37.9041C158.243 37.565 159.227 37.4603 160.061 37.5433C160.895 37.6479 161.62 37.8175 162.218 38.0917C162.903 38.3875 163.479 38.7916 163.992 39.2967L161.835 41.0969C161.322 40.8227 160.768 40.6532 160.148 40.6315C159.529 40.5882 158.953 40.6531 158.396 40.8227C157.842 40.9923 157.368 41.2665 156.986 41.6272C156.6 41.988 156.388 42.4534 156.345 43.0018C156.323 43.3842 156.345 43.7197 156.428 43.9975C156.512 44.2933 156.643 44.5459 156.815 44.7587C156.986 44.9716 157.179 45.1592 157.412 45.289C157.645 45.437 157.882 45.5235 158.137 45.5849C158.458 45.6678 158.778 45.6678 159.099 45.5632C159.42 45.4586 159.697 45.3504 159.933 45.1808C160.21 45.0112 160.487 44.7984 160.724 44.5459L158.822 44.2284L159.099 42.4101L164.291 42.4931L163.584 48.6731L161.875 49.1168L161.792 48.186C160.848 48.5432 159.886 48.7344 158.946 48.756Z" fill="white"/>
<path d="M158.862 44.2248L160.764 44.5422C160.509 44.7948 160.251 45.0076 159.974 45.1772C159.737 45.3251 159.46 45.4514 159.139 45.5596C158.819 45.6642 158.498 45.6642 158.177 45.5813C157.922 45.5163 157.686 45.4333 157.452 45.2854C157.216 45.1375 157.026 44.9679 156.855 44.7551C156.684 44.5422 156.556 44.2897 156.469 43.9939C156.385 43.698 156.363 43.3589 156.385 42.9981C156.429 42.4462 156.64 42.0024 157.026 41.6236C157.412 41.2628 157.882 40.9887 158.436 40.8191C158.99 40.6495 159.569 40.5846 160.189 40.6279C160.808 40.6712 161.366 40.8191 161.876 41.0933L164.033 39.293C163.519 38.7844 162.943 38.3839 162.258 38.0881C161.661 37.8355 160.954 37.6443 160.101 37.5397C159.267 37.4351 158.283 37.5614 157.194 37.9005C156.807 38.0051 156.425 38.1963 156.017 38.4921C155.612 38.7663 155.226 39.1054 154.862 39.5275C154.497 39.928 154.177 40.3934 153.9 40.9237C153.623 41.4541 153.43 42.0024 153.346 42.5941C153.24 43.1857 153.262 43.8207 153.39 44.4557C153.517 45.1123 153.776 45.7472 154.202 46.4038C154.501 46.9125 154.865 47.313 155.248 47.6088C155.634 47.9046 156.039 48.1608 156.465 48.3267C156.869 48.4963 157.299 48.6225 157.726 48.6875C158.152 48.7524 158.582 48.7705 158.986 48.7524C159.926 48.7308 160.888 48.5179 161.872 48.1608L161.956 49.0915L163.665 48.6478L164.371 42.4678L159.179 42.3848L158.862 44.2248Z" fill="#2D6A4F"/>
<path d="M112.528 18.5161C112.203 10.2937 117.107 5.61976 126.312 5.2694C127.296 5.22467 128.272 5.2694 129.2 5.35885C127.677 5.09794 126.042 4.96376 124.296 5.00849C114.711 5.40358 109.639 10.167 110.02 18.5608C110.568 26.2986 116.615 30.3688 127.073 29.9737C128.383 29.929 129.637 29.8023 130.78 29.5786C130.231 29.6233 129.637 29.6681 129.033 29.7128C118.853 30.0632 113.02 26.1272 112.528 18.5161Z" fill="#002370"/>
<path d="M130.612 14.0583L123.256 19.1274C121.454 17.2935 121.565 15.5417 123.581 13.8346C124.566 13.2234 125.597 12.9177 126.628 12.873C127.947 12.791 129.256 13.2308 130.612 14.0583ZM141.508 25.0761C141.396 25.1655 141.294 25.2923 141.182 25.3817C141.071 25.4712 140.969 25.5979 140.857 25.6873C140.746 25.7768 140.588 25.9035 140.477 25.993C140.365 26.0824 140.263 26.1644 140.151 26.2539C139.984 26.3433 139.882 26.4701 139.715 26.5595C139.603 26.649 139.501 26.6937 139.39 26.7757C139.223 26.8652 139.065 26.9919 138.898 27.0813C138.786 27.1261 138.73 27.1708 138.628 27.2155C138.461 27.305 138.247 27.4317 138.08 27.5212C138.024 27.5659 137.969 27.5659 137.913 27.6106C135.842 28.6617 133.445 29.3624 130.779 29.6233C130.231 29.6681 129.637 29.7128 129.033 29.7575C118.955 30.1526 113.067 26.1719 112.584 18.5608C112.258 10.3385 117.163 5.66448 126.367 5.31412C127.352 5.26939 128.327 5.31411 129.256 5.40357C130.287 5.49302 131.216 5.66448 132.145 5.88811C132.201 5.88811 132.312 5.93285 132.358 5.93285C132.572 5.97757 132.795 6.06702 133.064 6.14902C133.176 6.19375 133.278 6.19375 133.389 6.23848C133.603 6.32793 133.826 6.37266 133.993 6.45466C134.105 6.49939 134.207 6.54411 134.318 6.58884C134.486 6.67829 134.699 6.76029 134.866 6.84975C134.978 6.89448 135.08 6.98393 135.191 7.02121C135.359 7.11066 135.517 7.19266 135.684 7.28211C135.795 7.32684 135.897 7.4163 136.009 7.4983C136.176 7.58775 136.334 7.66975 136.501 7.80393C136.668 7.93811 136.826 8.02011 136.993 8.15429C137.161 8.28847 137.374 8.45993 137.541 8.59411C137.653 8.68356 137.811 8.81029 137.922 8.94447C138.034 9.03392 138.136 9.16066 138.192 9.25011C138.303 9.38429 138.405 9.46629 138.517 9.60047C138.628 9.68993 138.684 9.81665 138.786 9.90611C138.898 10.0403 139 10.167 139.111 10.3012C139.167 10.3907 139.278 10.5174 139.325 10.6068C139.436 10.741 139.492 10.9125 139.594 11.0914C139.65 11.1808 139.706 11.3076 139.761 11.397C139.873 11.5685 139.929 11.7474 140.031 11.9636C140.086 12.053 140.142 12.135 140.142 12.2245C140.254 12.5301 140.356 12.791 140.467 13.0966L141.015 14.759L139.436 15.8995L138.786 16.3841L142.984 19.6194L145 21.1923L143.477 23.1155C143.263 23.3764 143.096 23.6001 142.873 23.861C142.817 23.9504 142.706 24.0324 142.659 24.1219C142.548 24.2561 142.39 24.4275 142.223 24.5617C142.111 24.6512 142.009 24.7332 141.953 24.8226C141.73 24.8152 141.619 24.9419 141.508 25.0761ZM140.532 21.5352L135.953 17.9943C134.486 19.9175 132.089 20.9239 128.764 21.0581C128.16 21.1028 127.566 21.0581 126.916 21.0581L137.105 13.7601C135.851 9.82411 132.312 7.90084 126.535 8.07975C119.234 8.38538 115.695 11.7996 116.02 18.3968C116.401 24.4275 120.702 27.2752 128.931 26.9695C133.993 26.6937 137.866 24.9046 140.532 21.5352Z" fill="#0042BD"/>
<path d="M135.897 17.9943C134.43 19.9175 132.034 20.9239 128.708 21.0581C128.105 21.1028 127.51 21.0581 126.86 21.0581L137.049 13.7601C135.795 9.82412 132.256 7.90085 126.479 8.07976C119.178 8.38539 115.64 11.7996 115.965 18.3968C116.345 24.4275 120.646 27.2752 128.875 26.9695C134.049 26.7534 137.922 24.9568 140.532 21.5948L135.897 17.9943ZM123.59 13.8421C124.575 13.2308 125.606 12.9252 126.637 12.8805C127.947 12.8357 129.256 13.2308 130.612 14.103L123.256 19.1721C121.463 17.2936 121.575 15.5417 123.59 13.8421Z" fill="#FFE000"/>
<path d="M79.6768 27.1631L79.9614 29.2548L77.53 28.4724L77.2454 26.3807L75.3343 13.3617L77.3348 13.1435L77.6194 13.1116L79.6768 27.1631ZM87.6868 8.84288L90.1183 6.65531L91.9805 5L90.167 5.15436L87.5404 7.40047L87.638 8.11901L87.6868 8.84288ZM73.6673 9.61997L73.4315 7.87418L76.0093 7.5016L84.0193 6.31467L87.4022 5.81435L84.9707 5.03193L81.5878 5.53225L73.5778 6.71918L71 7.09176L71.2358 8.83755L71.4717 10.5567L71.7563 12.6804L74.1877 13.4628L73.9031 11.3392L73.6673 9.61997ZM90.8827 23.73L90.9802 25.0075L103.048 30L105.577 29.7818L101.235 28.004L90.8827 23.73Z" fill="#001D63"/>
<path d="M104.569 20.7973L94.8835 17.0502L100.795 12.1482L102.658 10.5887L100.324 9.36981L94.4118 6.27741L91.9804 5L90.1182 6.65531L87.6867 8.84288L87.5891 8.12433L87.3533 5.84629L83.9704 6.3466L75.9604 7.53353L73.3826 7.90611L73.6184 9.65191L73.8542 11.3711L74.1388 13.4948L77.2859 13.1488L77.5705 13.1169L79.6198 27.195L79.9044 29.2868L83.0515 28.9408L88.443 28.35L91.0696 28.0679L90.9232 26.2902L90.7362 23.7939L101.088 28.0413L105.431 29.819L105.666 26.4179L105.902 22.6389L106 21.452L104.569 20.7973ZM102.804 26.2902L87.5891 20.0788L88.0689 26.3541L82.6286 26.9449L80.2947 10.775L76.863 11.1475L76.676 9.42836L84.6372 8.24143L85.2552 14.3624L92.5496 7.77305L98.4616 10.8654L90.4028 17.5452L103.04 22.4473L102.804 26.2902Z" fill="#0042BD"/>
<path d="M98.4698 10.9293L92.5497 7.8103L85.3041 14.3996L84.6373 8.27869L76.668 9.43368L76.8631 11.1529L80.2948 10.775L82.6775 26.9449L88.069 26.3541L87.5892 20.0788L102.804 26.2902L103.048 22.5165L90.4029 17.6144L98.4698 10.9293Z" fill="#FFE000"/>
<path d="M54.108 29.4257C52.6208 29.4257 51.1862 29.2684 49.7953 28.9881C47.8445 28.5847 46.1037 27.9078 44.5116 26.9438C42.867 25.9798 41.5374 24.7354 40.6101 23.2928C39.6391 21.8091 39.1755 20.2434 39.123 18.6435C39.0705 17.1188 39.4291 15.5942 40.1465 14.1105C40.8638 12.6679 41.8873 11.3004 43.2782 10.0971C44.6603 8.89376 46.3574 7.8887 48.3082 7.12977C50.2589 6.37085 52.3147 5.88541 54.4141 5.72816C56.4699 5.57091 58.5169 5.68714 60.3627 6.09053C60.7738 6.17257 61.185 6.28881 61.6486 6.41187C60.6251 6.00848 59.5928 5.68714 58.4644 5.44784C56.4611 5.04445 54.3092 4.8872 52.1572 5.08547C49.9528 5.24273 47.7921 5.76918 45.7451 6.56913C43.6893 7.36907 41.896 8.45618 40.4089 9.70054C38.9218 10.9859 37.8458 12.3875 37.076 13.9122C36.3587 15.4369 36 17.0368 36 18.6845C36.0525 20.3665 36.5686 22.0142 37.5921 23.5799C38.6156 25.1046 40.0065 26.4242 41.6948 27.4292C43.3832 28.4343 45.2377 29.1522 47.2847 29.5556C48.7718 29.8769 50.2589 30 51.7986 30C52.3584 30 52.927 29.959 53.5394 29.918C55.5426 29.7607 57.5371 29.3163 59.4879 28.5916C58.2544 28.9129 56.9773 29.1522 55.6913 29.2342C55.184 29.3915 54.6241 29.4257 54.108 29.4257Z" fill="#001D63"/>
<path d="M69.504 11.7858C68.5767 10.3432 67.2471 9.09885 65.655 8.13481C64.4215 7.41008 63.0918 6.80841 61.6047 6.41185C61.1936 6.28878 60.7824 6.17255 60.3188 6.09051C58.4205 5.68712 56.4173 5.57088 54.3703 5.72814C52.3145 5.88539 50.2676 6.37083 48.2643 7.12975C46.3135 7.88867 44.6252 8.89374 43.2343 10.0971C41.8522 11.3004 40.7674 12.661 40.1026 14.1105C39.3853 15.5531 39.0791 17.0778 39.0791 18.6435C39.1316 20.2502 39.5952 21.7749 40.5662 23.2927C41.4935 24.7354 42.8232 25.9797 44.4678 26.9438C46.0599 27.9078 47.8532 28.5847 49.7514 28.9881C51.1336 29.2684 52.577 29.4257 54.0641 29.4257C54.5802 29.4257 55.1401 29.4257 55.7087 29.3846C56.9946 29.3026 58.2718 29.0633 59.5052 28.7419C60.2751 28.5437 61.0449 28.2633 61.8147 27.983C63.7129 27.2241 65.41 26.219 66.7922 25.0157C68.1743 23.8124 69.2591 22.4518 69.9764 21.0023C70.6937 19.5597 70.9999 18.035 70.9999 16.4693C70.9386 14.8284 70.475 13.2695 69.504 11.7858ZM55.4463 26.8207C53.7492 26.9438 52.1658 26.8207 50.6262 26.4994C49.0866 26.178 47.7044 25.6584 46.4185 24.8926C45.1326 24.1337 44.1616 23.2107 43.4443 22.0826C42.7269 20.9613 42.3158 19.7579 42.3158 18.5546C42.2633 17.3513 42.5695 16.1479 43.1381 14.9856C43.7067 13.8233 44.5202 12.743 45.6487 11.779C46.7772 10.815 48.1156 10.015 49.7514 9.37233C51.3435 8.72964 52.9881 8.33309 54.6764 8.21002C56.3735 8.08695 57.9569 8.169 59.4965 8.49034C61.0361 8.81169 62.4183 9.33131 63.6517 10.0971C64.8852 10.856 65.8562 11.779 66.626 12.9071C67.3433 14.0284 67.7544 15.2318 67.7544 16.4351C67.8069 17.6384 67.5007 18.8418 66.9321 20.0041C66.3635 21.1664 65.4975 22.2467 64.369 23.2107C63.2406 24.2158 61.8584 25.0157 60.3188 25.6584C58.7267 26.3421 57.0821 26.7045 55.4463 26.8207ZM60.3713 18.1581C59.9076 18.5614 59.3478 18.8828 58.7792 19.0811C58.0619 19.3614 57.397 19.5255 56.6272 19.6007C55.9099 19.6417 55.1926 19.6007 54.5715 19.4776C53.9066 19.3204 53.338 19.1153 52.7782 18.7529C52.2183 18.4315 51.8072 17.994 51.4922 17.5085C51.1861 17.0299 50.9761 16.5445 50.9761 15.9838C50.9761 15.4642 51.0811 14.9446 51.3348 14.4181C51.5885 13.9395 51.9471 13.4541 52.4633 13.0165C52.9794 12.5721 53.5392 12.2166 54.2566 11.9363C54.8164 11.738 55.5425 11.5739 56.4085 11.4577C57.2833 11.3346 58.1056 11.4166 58.8754 11.6559C58.6742 11.697 58.3593 11.697 58.0006 11.697C57.642 11.697 57.1783 11.779 56.7147 11.9773C55.7437 12.3807 55.1751 12.9003 55.0701 13.543C54.9126 14.1857 55.0701 14.7873 55.4812 15.307C55.9449 15.9907 56.6097 16.3872 57.3795 16.5513C58.1493 16.7086 58.9191 16.6744 59.6365 16.4283C60.3013 16.189 60.8174 15.7856 61.1236 15.2249C61.4298 14.7053 61.6397 14.1788 61.6922 13.6592C61.9459 14.2199 62.1033 14.7395 62.0509 15.2659C61.9984 15.7856 61.8497 16.312 61.5872 16.7906C61.1848 17.3581 60.8262 17.7957 60.3713 18.1581Z" fill="#0042BD"/>
<path d="M66.6261 12.9482C65.9088 11.8269 64.929 10.9039 63.6518 10.1381C62.4184 9.37918 61.0362 8.85272 59.4966 8.53138C57.957 8.21003 56.3649 8.12799 54.6766 8.25105C52.9795 8.37412 51.3437 8.77068 49.7516 9.41337C48.1595 10.0561 46.7773 10.856 45.6488 11.82C44.5204 12.7841 43.6981 13.8643 43.1382 15.0267C42.5784 16.189 42.3159 17.3923 42.3159 18.5956C42.3684 19.799 42.7271 21.0023 43.4444 22.1236C44.1617 23.2449 45.1852 24.1679 46.4186 24.9337C47.7046 25.6926 49.0867 26.2191 50.6263 26.5404C52.166 26.8617 53.7581 26.9438 55.4464 26.8617C57.1435 26.7387 58.7268 26.3831 60.3714 25.7405C61.9635 25.0978 63.2932 24.2978 64.4216 23.2928C65.5501 22.2877 66.4249 21.2485 66.9848 20.0861C67.5446 18.9238 67.807 17.7205 67.807 16.5172C67.7021 15.2318 67.3434 14.0695 66.6261 12.9482ZM54.5191 19.5255C53.8543 19.3682 53.2857 19.1631 52.7258 18.8008C52.1572 18.4794 51.7548 18.0418 51.4399 17.5564C51.1337 17.0778 50.9238 16.5924 50.9238 16.0317C50.9238 15.5121 51.0287 14.9856 51.2824 14.466C51.5361 13.9874 51.8948 13.502 52.4109 13.0644C52.927 12.6268 53.4869 12.2645 54.2042 11.9841C54.7728 11.7859 55.4901 11.6218 56.3562 11.5055C57.2309 11.3825 58.0532 11.4645 58.823 11.7038C58.6218 11.7448 58.3069 11.7448 57.9483 11.7448C57.5896 11.7448 57.126 11.8269 56.6623 12.0252C55.6913 12.4285 55.1227 12.9482 55.0177 13.5909C54.8603 14.2335 55.0177 14.8352 55.4289 15.3548C55.8925 16.0386 56.5574 16.4351 57.3272 16.5992C58.097 16.7565 58.8668 16.7223 59.5841 16.4761C60.2489 16.2368 60.7651 15.8334 61.0712 15.2728C61.3774 14.7532 61.5874 14.2267 61.6398 13.7071C61.8935 14.2677 62.051 14.7874 61.9985 15.3138C61.946 15.8334 61.7973 16.3531 61.5349 16.8385C61.2812 17.3171 60.87 17.7615 60.4064 18.1649C59.9428 18.5683 59.3829 18.8896 58.8143 19.0879C58.097 19.3682 57.4321 19.5323 56.6623 19.6075C55.9013 19.6827 55.184 19.6417 54.5191 19.5255Z" fill="#FFE000"/>
<path d="M4.51146 14.4595L5.04489 16.5565L2.34162 15.7599L1.8082 13.6629L0.479178 8.67239L0 6.79756L3.07394 6.38574C8.85114 5.58921 13.4169 5.14488 17.0694 5.02026C20.731 4.92272 23.4343 5.1774 25.3419 5.78428C25.7126 5.90891 26.1376 6.03895 26.5082 6.19609C24.7543 5.84388 22.5302 5.71926 19.7727 5.81679C16.1111 5.91433 11.5544 6.35865 5.7772 7.18228L2.70326 7.59409L3.18244 9.46893L4.51146 14.4595ZM8.6432 16.0796L8.48047 16.1121L6.31063 16.3993L9.91799 27.3666L10.4966 29.1764L13.1999 29.9729L12.6122 28.1631L8.6432 16.0796Z" fill="#001D63"/>
<path d="M34.9436 13.0615C34.0937 9.27929 30.7034 7.46948 28.0543 6.60792C27.8464 6.5429 27.5752 6.4833 27.313 6.38576C27.0508 6.32074 26.7796 6.26113 26.5174 6.22862C24.7634 5.87641 22.5393 5.75178 19.7818 5.84932C16.1202 5.94685 11.5635 6.39118 5.78634 7.21481L2.7124 7.62662L3.19158 9.50146L4.5206 14.492L5.05402 16.589L6.3288 16.4318L8.49864 16.1447L8.66139 16.1121L12.5852 28.1902L13.1729 30L16.2468 29.7779L21.1832 29.4311L24.3114 29.2089L24.1034 27.3016L23.6242 22.6957C33.5694 20.1165 35.3685 16.1772 34.9436 13.0615ZM20.2067 21.2923L20.8396 27.3937L15.9123 27.7459L11.3014 13.6684L7.80249 14.1127L6.47346 9.12215C11.9885 8.35813 16.4457 7.91381 19.8903 7.82169C22.91 7.72416 25.0889 7.91922 26.4631 8.36355C29.3834 9.31722 31.1283 10.9699 31.6617 13.3216C32.0866 17.0008 28.2623 19.6397 20.2067 21.2923ZM25.1341 13.7605C25.342 14.9363 23.4344 16.0146 19.4563 16.9412L18.5522 12.6822C19.9265 12.4925 21.1018 12.3625 21.9426 12.33C22.5755 12.2975 23.1089 12.33 23.4796 12.4275C24.3385 12.6172 24.8719 13.0615 25.1341 13.7605Z" fill="#0042BD"/>
<path d="M31.6616 13.3487C31.1282 10.997 29.3833 9.34432 26.4631 8.39065C25.0798 7.94632 22.9099 7.78918 19.8902 7.84879C16.4999 7.94632 11.9884 8.39065 6.47339 9.14925L7.80242 14.1398L11.3013 13.6955L15.9122 27.773L20.8395 27.4208L20.2067 21.3194C28.2622 19.6397 32.0866 17.0008 31.6616 13.3487ZM19.5105 16.9412L18.6064 12.6822C19.9807 12.4925 21.156 12.3625 21.9968 12.33C22.6297 12.2975 23.1631 12.33 23.5338 12.4275C24.3836 12.6172 24.908 13.0615 25.1792 13.7605C25.351 14.9363 23.4886 15.9875 19.5105 16.9412Z" fill="#FFE000"/>
</svg>
